solid ASCII
  facet normal 9.510571e-01 2.656642e-07 3.090153e-01
    outer loop
      vertex   1.928148e-01 1.709118e-01 1.400882e-01
      vertex   1.928150e-01 -1.709119e-01 1.400879e-01
      vertex   2.383322e-01 -1.709118e-01 -3.874706e-07
    endloop
  endfacet
  facet normal 9.510567e-01 -2.627575e-07 3.090165e-01
    outer loop
      vertex   1.928148e-01 1.709118e-01 1.400882e-01
      vertex   2.383322e-01 -1.709118e-01 -3.874706e-07
      vertex   2.383322e-01 1.709117e-01 -9.681713e-08
    endloop
  endfacet
  facet normal 9.510565e-01 2.627581e-07 -3.090172e-01
    outer loop
      vertex   2.383322e-01 1.709117e-01 -9.681713e-08
      vertex   2.383322e-01 -1.709118e-01 -3.874706e-07
      vertex   1.928148e-01 -1.709118e-01 -1.400885e-01
    endloop
  endfacet
  facet normal 9.510565e-01 2.357430e-07 -3.090171e-01
    outer loop
      vertex   2.383322e-01 1.709117e-01 -9.681713e-08
      vertex   1.928148e-01 -1.709118e-01 -1.400885e-01
      vertex   1.928148e-01 1.709117e-01 -1.400883e-01
    endloop
  endfacet
  facet normal 5.877838e-01 6.171836e-07 -8.090180e-01
    outer loop
      vertex   1.928148e-01 1.709117e-01 -1.400883e-01
      vertex   1.928148e-01 -1.709118e-01 -1.400885e-01
      vertex   7.364841e-02 -1.709118e-01 -2.266676e-01
    endloop
  endfacet
  facet normal 5.877855e-01 -2.799907e-07 -8.090168e-01
    outer loop
      vertex   1.928148e-01 1.709117e-01 -1.400883e-01
      vertex   7.364841e-02 -1.709118e-01 -2.266676e-01
      vertex   7.364873e-02 1.709117e-01 -2.266675e-01
    endloop
  endfacet
  facet normal -2.023275e-06 3.269504e-07 -1.000000e+00
    outer loop
      vertex   7.364873e-02 1.709117e-01 -2.266675e-01
      vertex   7.364841e-02 -1.709118e-01 -2.266676e-01
      vertex   -7.364905e-02 -1.709118e-01 -2.266673e-01
    endloop
  endfacet
  facet normal 5.058189e-07 -7.628805e-07 -1.000000e+00
    outer loop
      vertex   7.364873e-02 1.709117e-01 -2.266675e-01
      vertex   -7.364905e-02 -1.709118e-01 -2.266673e-01
      vertex   -7.364867e-02 1.709117e-01 -2.266676e-01
    endloop
  endfacet
  facet normal -5.877871e-01 2.340533e-08 -8.090156e-01
    outer loop
      vertex   -7.364867e-02 1.709117e-01 -2.266676e-01
      vertex   -7.364905e-02 -1.709118e-01 -2.266673e-01
      vertex   -1.928150e-01 -1.709118e-01 -1.400878e-01
    endloop
  endfacet
  facet normal -5.877854e-01 -8.741247e-07 -8.090169e-01
    outer loop
      vertex   -7.364867e-02 1.709117e-01 -2.266676e-01
      vertex   -1.928150e-01 -1.709118e-01 -1.400878e-01
      vertex   -1.928147e-01 1.709117e-01 -1.400883e-01
    endloop
  endfacet
  facet normal -9.510570e-01 2.203816e-07 -3.090154e-01
    outer loop
      vertex   -1.928147e-01 1.709117e-01 -1.400883e-01
      vertex   -1.928150e-01 -1.709118e-01 -1.400878e-01
      vertex   -2.383322e-01 -1.709118e-01 5.438520e-07
    endloop
  endfacet
  facet normal -9.510566e-01 -4.237073e-07 -3.090169e-01
    outer loop
      vertex   -1.928147e-01 1.709117e-01 -1.400883e-01
      vertex   -2.383322e-01 -1.709118e-01 5.438520e-07
      vertex   -2.383321e-01 1.709117e-01 -9.681713e-08
    endloop
  endfacet
  facet normal -9.510557e-01 7.346588e-07 3.090196e-01
    outer loop
      vertex   -2.383321e-01 1.709117e-01 -9.681713e-08
      vertex   -2.383322e-01 -1.709118e-01 5.438520e-07
      vertex   -1.928144e-01 -1.709119e-01 1.400886e-01
    endloop
  endfacet
  facet normal -9.510565e-01 -3.563965e-07 3.090172e-01
    outer loop
      vertex   -2.383321e-01 1.709117e-01 -9.681713e-08
      vertex   -1.928144e-01 -1.709119e-01 1.400886e-01
      vertex   -1.928147e-01 1.709118e-01 1.400881e-01
    endloop
  endfacet
  facet normal -5.877830e-01 6.216771e-07 8.090186e-01
    outer loop
      vertex   -1.928147e-01 1.709118e-01 1.400881e-01
      vertex   -1.928144e-01 -1.709119e-01 1.400886e-01
      vertex   -7.364798e-02 -1.709119e-01 2.266676e-01
    endloop
  endfacet
  facet normal -5.877845e-01 -1.754511e-07 8.090175e-01
    outer loop
      vertex   -1.928147e-01 1.709118e-01 1.400881e-01
      vertex   -7.364798e-02 -1.709119e-01 2.266676e-01
      vertex   -7.364850e-02 1.709118e-01 2.266673e-01
    endloop
  endfacet
  facet normal 3.793640e-06 8.718681e-07 1.000000e+00
    outer loop
      vertex   -7.364850e-02 1.709118e-01 2.266673e-01
      vertex   -7.364798e-02 -1.709119e-01 2.266676e-01
      vertex   7.364949e-02 -1.709119e-01 2.266670e-01
    endloop
  endfacet
  facet normal 8.851830e-07 -3.814383e-07 1.000000e+00
    outer loop
      vertex   -7.364850e-02 1.709118e-01 2.266673e-01
      vertex   7.364949e-02 -1.709119e-01 2.266670e-01
      vertex   7.364891e-02 1.709118e-01 2.266672e-01
    endloop
  endfacet
  facet normal 5.877847e-01 -3.409753e-07 8.090174e-01
    outer loop
      vertex   1.928150e-01 -1.709119e-01 1.400879e-01
      vertex   1.928148e-01 1.709118e-01 1.400882e-01
      vertex   7.364891e-02 1.709118e-01 2.266672e-01
    endloop
  endfacet
  facet normal 5.877866e-01 6.843179e-07 8.090160e-01
    outer loop
      vertex   1.928150e-01 -1.709119e-01 1.400879e-01
      vertex   7.364891e-02 1.709118e-01 2.266672e-01
      vertex   7.364949e-02 -1.709119e-01 2.266670e-01
    endloop
  endfacet
  facet normal 1.636864e-06 1.000000e+00 -3.988874e-07
    outer loop
      vertex   2.383322e-01 1.709117e-01 -9.681713e-08
      vertex   1.928148e-01 1.709117e-01 -1.400883e-01
      vertex   1.928148e-01 1.709118e-01 1.400882e-01
    endloop
  endfacet
  facet normal 0.000000e+00 1.000000e+00 0.000000e+00
    outer loop
      vertex   1.928148e-01 1.709117e-01 -1.400883e-01
      vertex   7.364873e-02 1.709117e-01 -2.266675e-01
      vertex   -7.364867e-02 1.709117e-01 -2.266676e-01
    endloop
  endfacet
  facet normal 1.296064e-07 1.000000e+00 -3.988870e-07
    outer loop
      vertex   1.928148e-01 1.709117e-01 -1.400883e-01
      vertex   -7.364867e-02 1.709117e-01 -2.266676e-01
      vertex   1.928148e-01 1.709118e-01 1.400882e-01
    endloop
  endfacet
  facet normal -1.449042e-07 1.000000e+00 -1.994434e-07
    outer loop
      vertex   -7.364867e-02 1.709117e-01 -2.266676e-01
      vertex   -1.928147e-01 1.709117e-01 -1.400883e-01
      vertex   1.928148e-01 1.709118e-01 1.400882e-01
    endloop
  endfacet
  facet normal -3.126133e-07 1.000000e+00 3.138812e-08
    outer loop
      vertex   -1.928147e-01 1.709117e-01 -1.400883e-01
      vertex   -2.383321e-01 1.709117e-01 -9.681713e-08
      vertex   1.928148e-01 1.709118e-01 1.400882e-01
    endloop
  endfacet
  facet normal 8.851805e-07 1.000000e+00 -1.218349e-06
    outer loop
      vertex   -2.383321e-01 1.709117e-01 -9.681713e-08
      vertex   -1.928147e-01 1.709118e-01 1.400881e-01
      vertex   -7.364850e-02 1.709118e-01 2.266673e-01
    endloop
  endfacet
  facet normal -1.512072e-07 1.000000e+00 -4.653683e-07
    outer loop
      vertex   -2.383321e-01 1.709117e-01 -9.681713e-08
      vertex   -7.364850e-02 1.709118e-01 2.266673e-01
      vertex   1.928148e-01 1.709118e-01 1.400882e-01
    endloop
  endfacet
  facet normal 0.000000e+00 1.000000e+00 0.000000e+00
    outer loop
      vertex   -7.364850e-02 1.709118e-01 2.266673e-01
      vertex   7.364891e-02 1.709118e-01 2.266672e-01
      vertex   1.928148e-01 1.709118e-01 1.400882e-01
    endloop
  endfacet
  facet normal -1.264550e-07 -1.000000e+00 -1.740497e-07
    outer loop
      vertex   1.928150e-01 -1.709119e-01 1.400879e-01
      vertex   7.364949e-02 -1.709119e-01 2.266670e-01
      vertex   2.383322e-01 -1.709118e-01 -3.874706e-07
    endloop
  endfacet
  facet normal -3.117442e-13 -1.000000e+00 -8.217548e-08
    outer loop
      vertex   7.364949e-02 -1.709119e-01 2.266670e-01
      vertex   -7.364798e-02 -1.709119e-01 2.266676e-01
      vertex   2.383322e-01 -1.709118e-01 -3.874706e-07
    endloop
  endfacet
  facet normal 1.264542e-07 -1.000000e+00 -1.740503e-07
    outer loop
      vertex   -7.364798e-02 -1.709119e-01 2.266676e-01
      vertex   -1.928144e-01 -1.709119e-01 1.400886e-01
      vertex   -2.383322e-01 -1.709118e-01 5.438520e-07
    endloop
  endfacet
  facet normal -1.605568e-13 -1.000000e+00 -8.217527e-08
    outer loop
      vertex   -7.364798e-02 -1.709119e-01 2.266676e-01
      vertex   -2.383322e-01 -1.709118e-01 5.438520e-07
      vertex   2.383322e-01 -1.709118e-01 -3.874706e-07
    endloop
  endfacet
  facet normal 0.000000e+00 -1.000000e+00 0.000000e+00
    outer loop
      vertex   -1.928150e-01 -1.709118e-01 -1.400878e-01
      vertex   -7.364905e-02 -1.709118e-01 -2.266673e-01
      vertex   7.364841e-02 -1.709118e-01 -2.266676e-01
    endloop
  endfacet
  facet normal -4.830171e-08 -1.000000e+00 -1.486563e-07
    outer loop
      vertex   -2.383322e-01 -1.709118e-01 5.438520e-07
      vertex   -1.928150e-01 -1.709118e-01 -1.400878e-01
      vertex   7.364841e-02 -1.709118e-01 -2.266676e-01
    endloop
  endfacet
  facet normal -1.605566e-13 -1.000000e+00 -8.217520e-08
    outer loop
      vertex   -2.383322e-01 -1.709118e-01 5.438520e-07
      vertex   7.364841e-02 -1.709118e-01 -2.266676e-01
      vertex   2.383322e-01 -1.709118e-01 -3.874706e-07
    endloop
  endfacet
  facet normal 1.264541e-07 -1.000000e+00 -1.740499e-07
    outer loop
      vertex   7.364841e-02 -1.709118e-01 -2.266676e-01
      vertex   1.928148e-01 -1.709118e-01 -1.400885e-01
      vertex   2.383322e-01 -1.709118e-01 -3.874706e-07
    endloop
  endfacet
endsolid
