solid ASCII
  facet normal 1.000000e+00 -0.000000e+00 0.000000e+00
    outer loop
      vertex   1.603433e+00 1.336725e+00 -9.202995e-01
      vertex   1.603433e+00 1.403624e+00 -9.202998e-01
      vertex   1.603433e+00 1.336725e+00 -8.759441e-01
    endloop
  endfacet
  facet normal 1.000000e+00 -0.000000e+00 0.000000e+00
    outer loop
      vertex   1.603433e+00 1.336725e+00 -8.759441e-01
      vertex   1.603433e+00 1.403624e+00 -9.202998e-01
      vertex   1.603433e+00 1.403624e+00 -3.413293e-01
    endloop
  endfacet
  facet normal -5.147470e-07 -4.113550e-06 -1.000000e+00
    outer loop
      vertex   1.603433e+00 1.336725e+00 -9.202995e-01
      vertex   1.559078e+00 1.336725e+00 -9.202995e-01
      vertex   1.603433e+00 1.403624e+00 -9.202998e-01
    endloop
  endfacet
  facet normal -5.147470e-07 -4.113550e-06 -1.000000e+00
    outer loop
      vertex   1.603433e+00 1.403624e+00 -9.202998e-01
      vertex   1.559078e+00 1.336725e+00 -9.202995e-01
      vertex   1.024463e+00 1.403624e+00 -9.202995e-01
    endloop
  endfacet
  facet normal -0.000000e+00 0.000000e+00 -1.000000e+00
    outer loop
      vertex   1.559078e+00 1.336725e+00 -9.202995e-01
      vertex   1.024463e+00 1.336725e+00 -9.202995e-01
      vertex   1.024463e+00 1.403624e+00 -9.202995e-01
    endloop
  endfacet
  facet normal -1.000000e+00 0.000000e+00 0.000000e+00
    outer loop
      vertex   1.024463e+00 1.336725e+00 -9.202995e-01
      vertex   1.024463e+00 1.336725e+00 -8.759445e-01
      vertex   1.024463e+00 1.403624e+00 -9.202995e-01
    endloop
  endfacet
  facet normal -1.000000e+00 0.000000e+00 0.000000e+00
    outer loop
      vertex   1.024463e+00 1.403624e+00 -9.202995e-01
      vertex   1.024463e+00 1.336725e+00 -8.759445e-01
      vertex   1.024463e+00 1.403624e+00 -3.413293e-01
    endloop
  endfacet
  facet normal -1.000000e+00 0.000000e+00 0.000000e+00
    outer loop
      vertex   1.024463e+00 1.336725e+00 -8.759445e-01
      vertex   1.024463e+00 1.336725e+00 -3.413290e-01
      vertex   1.024463e+00 1.403624e+00 -3.413293e-01
    endloop
  endfacet
  facet normal 1.324822e-13 1.000000e+00 2.573735e-07
    outer loop
      vertex   1.024463e+00 1.403624e+00 -3.413293e-01
      vertex   1.603433e+00 1.403624e+00 -9.202998e-01
      vertex   1.024463e+00 1.403624e+00 -9.202995e-01
    endloop
  endfacet
  facet normal 2.524476e-16 4.113550e-06 1.000000e+00
    outer loop
      vertex   1.024463e+00 1.336725e+00 -3.413290e-01
      vertex   1.068820e+00 1.336725e+00 -3.413290e-01
      vertex   1.024463e+00 1.403624e+00 -3.413293e-01
    endloop
  endfacet
  facet normal -0.000000e+00 4.113550e-06 1.000000e+00
    outer loop
      vertex   1.024463e+00 1.403624e+00 -3.413293e-01
      vertex   1.068820e+00 1.336725e+00 -3.413290e-01
      vertex   1.603433e+00 1.403624e+00 -3.413293e-01
    endloop
  endfacet
  facet normal -0.000000e+00 1.000000e+00 2.573734e-07
    outer loop
      vertex   1.024463e+00 1.403624e+00 -3.413293e-01
      vertex   1.603433e+00 1.403624e+00 -3.413293e-01
      vertex   1.603433e+00 1.403624e+00 -9.202998e-01
    endloop
  endfacet
  facet normal 5.147470e-07 0.000000e+00 1.000000e+00
    outer loop
      vertex   1.068820e+00 1.336725e+00 -3.413290e-01
      vertex   1.603433e+00 1.336725e+00 -3.413293e-01
      vertex   1.603433e+00 1.403624e+00 -3.413293e-01
    endloop
  endfacet
  facet normal 1.000000e+00 -0.000000e+00 0.000000e+00
    outer loop
      vertex   1.603433e+00 1.336725e+00 -3.413293e-01
      vertex   1.603433e+00 1.336725e+00 -8.759441e-01
      vertex   1.603433e+00 1.403624e+00 -3.413293e-01
    endloop
  endfacet
  facet normal -5.147469e-07 0.000000e+00 1.000000e+00
    outer loop
      vertex   -1.594037e+00 1.336725e+00 -3.413293e-01
      vertex   -1.059422e+00 1.336725e+00 -3.413290e-01
      vertex   -1.594037e+00 1.403624e+00 -3.413293e-01
    endloop
  endfacet
  facet normal 6.820297e-16 4.113550e-06 1.000000e+00
    outer loop
      vertex   -1.015067e+00 1.336725e+00 -3.413290e-01
      vertex   -1.015067e+00 1.403624e+00 -3.413293e-01
      vertex   -1.059422e+00 1.336725e+00 -3.413290e-01
    endloop
  endfacet
  facet normal 0.000000e+00 4.113550e-06 1.000000e+00
    outer loop
      vertex   -1.059422e+00 1.336725e+00 -3.413290e-01
      vertex   -1.015067e+00 1.403624e+00 -3.413293e-01
      vertex   -1.594037e+00 1.403624e+00 -3.413293e-01
    endloop
  endfacet
  facet normal 1.000000e+00 0.000000e+00 0.000000e+00
    outer loop
      vertex   -1.015067e+00 1.336725e+00 -3.413290e-01
      vertex   -1.015067e+00 1.336725e+00 -3.848552e-01
      vertex   -1.015067e+00 1.403624e+00 -3.413293e-01
    endloop
  endfacet
  facet normal 1.000000e+00 0.000000e+00 0.000000e+00
    outer loop
      vertex   -1.015067e+00 1.403624e+00 -3.413293e-01
      vertex   -1.015067e+00 1.336725e+00 -3.848552e-01
      vertex   -1.015067e+00 1.336725e+00 -3.912149e-01
    endloop
  endfacet
  facet normal 1.000000e+00 0.000000e+00 0.000000e+00
    outer loop
      vertex   -1.015067e+00 1.403624e+00 -3.413293e-01
      vertex   -1.015067e+00 1.336725e+00 -3.912149e-01
      vertex   -1.015067e+00 1.336725e+00 -6.694619e-01
    endloop
  endfacet
  facet normal 1.000000e+00 -0.000000e+00 0.000000e+00
    outer loop
      vertex   -1.015067e+00 1.336725e+00 -6.694619e-01
      vertex   -1.015067e+00 1.336725e+00 -6.700101e-01
      vertex   -1.015067e+00 1.403624e+00 -3.413293e-01
    endloop
  endfacet
  facet normal 1.000000e+00 0.000000e+00 0.000000e+00
    outer loop
      vertex   -1.015067e+00 1.403624e+00 -3.413293e-01
      vertex   -1.015067e+00 1.336725e+00 -6.700101e-01
      vertex   -1.015067e+00 1.336725e+00 -8.759459e-01
    endloop
  endfacet
  facet normal 1.000000e+00 0.000000e+00 0.000000e+00
    outer loop
      vertex   -1.015067e+00 1.336725e+00 -9.202995e-01
      vertex   -1.015067e+00 1.403624e+00 -9.202995e-01
      vertex   -1.015067e+00 1.336725e+00 -8.759459e-01
    endloop
  endfacet
  facet normal 1.000000e+00 -0.000000e+00 0.000000e+00
    outer loop
      vertex   -1.015067e+00 1.336725e+00 -8.759459e-01
      vertex   -1.015067e+00 1.403624e+00 -9.202995e-01
      vertex   -1.015067e+00 1.403624e+00 -3.413293e-01
    endloop
  endfacet
  facet normal -0.000000e+00 0.000000e+00 -1.000000e+00
    outer loop
      vertex   -1.015067e+00 1.336725e+00 -9.202995e-01
      vertex   -1.549684e+00 1.336725e+00 -9.202995e-01
      vertex   -1.015067e+00 1.403624e+00 -9.202995e-01
    endloop
  endfacet
  facet normal -1.324822e-13 1.000000e+00 2.573735e-07
    outer loop
      vertex   -1.015067e+00 1.403624e+00 -3.413293e-01
      vertex   -1.015067e+00 1.403624e+00 -9.202995e-01
      vertex   -1.594037e+00 1.403624e+00 -9.202998e-01
    endloop
  endfacet
  facet normal 0.000000e+00 1.000000e+00 2.573734e-07
    outer loop
      vertex   -1.015067e+00 1.403624e+00 -3.413293e-01
      vertex   -1.594037e+00 1.403624e+00 -9.202998e-01
      vertex   -1.594037e+00 1.403624e+00 -3.413293e-01
    endloop
  endfacet
  facet normal 5.147469e-07 -4.113550e-06 -1.000000e+00
    outer loop
      vertex   -1.594037e+00 1.336725e+00 -9.202995e-01
      vertex   -1.594037e+00 1.403624e+00 -9.202998e-01
      vertex   -1.549684e+00 1.336725e+00 -9.202995e-01
    endloop
  endfacet
  facet normal 5.147469e-07 -4.113550e-06 -1.000000e+00
    outer loop
      vertex   -1.549684e+00 1.336725e+00 -9.202995e-01
      vertex   -1.594037e+00 1.403624e+00 -9.202998e-01
      vertex   -1.015067e+00 1.403624e+00 -9.202995e-01
    endloop
  endfacet
  facet normal -1.000000e+00 0.000000e+00 -0.000000e+00
    outer loop
      vertex   -1.594037e+00 1.336725e+00 -3.413293e-01
      vertex   -1.594037e+00 1.403624e+00 -3.413293e-01
      vertex   -1.594037e+00 1.336725e+00 -8.560788e-01
    endloop
  endfacet
  facet normal -1.000000e+00 0.000000e+00 -0.000000e+00
    outer loop
      vertex   -1.594037e+00 1.336725e+00 -8.560788e-01
      vertex   -1.594037e+00 1.403624e+00 -3.413293e-01
      vertex   -1.594037e+00 1.336725e+00 -8.571941e-01
    endloop
  endfacet
  facet normal -1.000000e+00 0.000000e+00 -0.000000e+00
    outer loop
      vertex   -1.594037e+00 1.336725e+00 -8.571941e-01
      vertex   -1.594037e+00 1.403624e+00 -3.413293e-01
      vertex   -1.594037e+00 1.336725e+00 -8.759463e-01
    endloop
  endfacet
  facet normal -1.000000e+00 0.000000e+00 0.000000e+00
    outer loop
      vertex   -1.594037e+00 1.336725e+00 -9.060871e-01
      vertex   -1.594037e+00 1.336725e+00 -9.059909e-01
      vertex   -1.594037e+00 1.403624e+00 -9.202998e-01
    endloop
  endfacet
  facet normal -1.000000e+00 0.000000e+00 0.000000e+00
    outer loop
      vertex   -1.594037e+00 1.403624e+00 -9.202998e-01
      vertex   -1.594037e+00 1.336725e+00 -9.059909e-01
      vertex   -1.594037e+00 1.336725e+00 -8.759463e-01
    endloop
  endfacet
  facet normal -1.000000e+00 0.000000e+00 0.000000e+00
    outer loop
      vertex   -1.594037e+00 1.403624e+00 -9.202998e-01
      vertex   -1.594037e+00 1.336725e+00 -8.759463e-01
      vertex   -1.594037e+00 1.403624e+00 -3.413293e-01
    endloop
  endfacet
  facet normal -1.000000e+00 0.000000e+00 0.000000e+00
    outer loop
      vertex   -1.594037e+00 1.403624e+00 -9.202998e-01
      vertex   -1.594037e+00 1.336725e+00 -9.202995e-01
      vertex   -1.594037e+00 1.336725e+00 -9.060871e-01
    endloop
  endfacet
  facet normal -8.694898e-08 1.000000e+00 -1.066197e-07
    outer loop
      vertex   1.024463e+00 1.336725e+00 -9.202995e-01
      vertex   -1.015067e+00 1.336725e+00 -8.759459e-01
      vertex   1.024463e+00 1.336725e+00 -8.759445e-01
    endloop
  endfacet
  facet normal -8.694898e-08 1.000000e+00 -1.066197e-07
    outer loop
      vertex   1.024463e+00 1.336725e+00 -8.759445e-01
      vertex   -1.015067e+00 1.336725e+00 -8.759459e-01
      vertex   -1.015067e+00 1.336725e+00 -6.700101e-01
    endloop
  endfacet
  facet normal -8.694898e-08 1.000000e+00 -1.066197e-07
    outer loop
      vertex   1.024463e+00 1.336725e+00 -8.759445e-01
      vertex   -1.015067e+00 1.336725e+00 -6.700101e-01
      vertex   1.024463e+00 1.336725e+00 -3.413290e-01
    endloop
  endfacet
  facet normal -8.694898e-08 1.000000e+00 -1.066197e-07
    outer loop
      vertex   1.024463e+00 1.336725e+00 -3.413290e-01
      vertex   -1.015067e+00 1.336725e+00 -6.700101e-01
      vertex   1.710398e+00 1.336726e+00 4.413066e-01
    endloop
  endfacet
  facet normal -8.694898e-08 1.000000e+00 -1.066197e-07
    outer loop
      vertex   1.024463e+00 1.336725e+00 -3.413290e-01
      vertex   1.710398e+00 1.336726e+00 4.413066e-01
      vertex   1.068820e+00 1.336725e+00 -3.413290e-01
    endloop
  endfacet
  facet normal -8.694898e-08 1.000000e+00 -1.066197e-07
    outer loop
      vertex   1.068820e+00 1.336725e+00 -3.413290e-01
      vertex   1.710398e+00 1.336726e+00 4.413066e-01
      vertex   1.603433e+00 1.336725e+00 -3.413293e-01
    endloop
  endfacet
  facet normal -8.694898e-08 1.000000e+00 -1.066197e-07
    outer loop
      vertex   1.603433e+00 1.336725e+00 -3.413293e-01
      vertex   1.710398e+00 1.336726e+00 4.413066e-01
      vertex   1.710398e+00 1.336725e+00 -9.562932e-01
    endloop
  endfacet
  facet normal -8.694898e-08 1.000000e+00 -1.066197e-07
    outer loop
      vertex   1.603433e+00 1.336725e+00 -3.413293e-01
      vertex   1.710398e+00 1.336725e+00 -9.562932e-01
      vertex   1.603433e+00 1.336725e+00 -8.759441e-01
    endloop
  endfacet
  facet normal -8.694898e-08 1.000000e+00 -1.066197e-07
    outer loop
      vertex   1.603433e+00 1.336725e+00 -8.759441e-01
      vertex   1.710398e+00 1.336725e+00 -9.562932e-01
      vertex   1.603433e+00 1.336725e+00 -9.202995e-01
    endloop
  endfacet
  facet normal -8.694899e-08 1.000000e+00 -1.066197e-07
    outer loop
      vertex   1.603433e+00 1.336725e+00 -9.202995e-01
      vertex   1.710398e+00 1.336725e+00 -9.562932e-01
      vertex   1.559078e+00 1.336725e+00 -9.202995e-01
    endloop
  endfacet
  facet normal -8.694898e-08 1.000000e+00 -1.066197e-07
    outer loop
      vertex   1.559078e+00 1.336725e+00 -9.202995e-01
      vertex   1.710398e+00 1.336725e+00 -9.562932e-01
      vertex   1.024463e+00 1.336725e+00 -9.202995e-01
    endloop
  endfacet
  facet normal -8.694898e-08 1.000000e+00 -1.066197e-07
    outer loop
      vertex   1.024463e+00 1.336725e+00 -9.202995e-01
      vertex   1.710398e+00 1.336725e+00 -9.562932e-01
      vertex   -1.015067e+00 1.336725e+00 -9.202995e-01
    endloop
  endfacet
  facet normal -8.694898e-08 1.000000e+00 -1.066197e-07
    outer loop
      vertex   1.024463e+00 1.336725e+00 -9.202995e-01
      vertex   -1.015067e+00 1.336725e+00 -9.202995e-01
      vertex   -1.015067e+00 1.336725e+00 -8.759459e-01
    endloop
  endfacet
  facet normal -8.694899e-08 1.000000e+00 -1.066196e-07
    outer loop
      vertex   -1.594037e+00 1.336725e+00 -9.060871e-01
      vertex   -1.594037e+00 1.336725e+00 -9.202995e-01
      vertex   -1.717166e+00 1.336725e+00 -9.562932e-01
    endloop
  endfacet
  facet normal -8.694898e-08 1.000000e+00 -1.066197e-07
    outer loop
      vertex   -1.717166e+00 1.336725e+00 -9.562932e-01
      vertex   -1.594037e+00 1.336725e+00 -9.202995e-01
      vertex   -1.549684e+00 1.336725e+00 -9.202995e-01
    endloop
  endfacet
  facet normal -8.694898e-08 1.000000e+00 -1.066197e-07
    outer loop
      vertex   -1.717166e+00 1.336725e+00 -9.562932e-01
      vertex   -1.549684e+00 1.336725e+00 -9.202995e-01
      vertex   -1.015067e+00 1.336725e+00 -9.202995e-01
    endloop
  endfacet
  facet normal -8.694898e-08 1.000000e+00 -1.066197e-07
    outer loop
      vertex   1.710398e+00 1.336725e+00 -9.562932e-01
      vertex   -1.717166e+00 1.336725e+00 -9.562932e-01
      vertex   -1.015067e+00 1.336725e+00 -9.202995e-01
    endloop
  endfacet
  facet normal -5.712976e-15 1.000000e+00 -2.132393e-07
    outer loop
      vertex   -1.015067e+00 1.336725e+00 -3.912149e-01
      vertex   -1.015067e+00 1.336725e+00 -3.848552e-01
      vertex   1.932565e-02 1.336725e+00 4.413066e-01
    endloop
  endfacet
  facet normal 0.000000e+00 1.000000e+00 -2.132393e-07
    outer loop
      vertex   1.932565e-02 1.336725e+00 4.413066e-01
      vertex   -1.015067e+00 1.336725e+00 -3.848552e-01
      vertex   -9.823379e-08 1.336725e+00 4.413066e-01
    endloop
  endfacet
  facet normal -1.570760e-13 1.000000e+00 -2.132391e-07
    outer loop
      vertex   -1.594037e+00 1.336725e+00 -8.560788e-01
      vertex   -1.594037e+00 1.336725e+00 -8.571941e-01
      vertex   -1.717166e+00 1.336725e+00 -9.562932e-01
    endloop
  endfacet
  facet normal -8.845926e-08 1.000000e+00 -1.033303e-07
    outer loop
      vertex   -1.015067e+00 1.336725e+00 -6.694619e-01
      vertex   -1.015067e+00 1.336725e+00 -3.912149e-01
      vertex   1.703848e+00 1.336726e+00 4.413066e-01
    endloop
  endfacet
  facet normal -8.845926e-08 1.000000e+00 -1.033303e-07
    outer loop
      vertex   1.703848e+00 1.336726e+00 4.413066e-01
      vertex   -1.015067e+00 1.336725e+00 -3.912149e-01
      vertex   1.932565e-02 1.336725e+00 4.413066e-01
    endloop
  endfacet
  facet normal -8.845925e-08 1.000000e+00 -1.033304e-07
    outer loop
      vertex   -1.594037e+00 1.336725e+00 -8.571941e-01
      vertex   -1.594037e+00 1.336725e+00 -8.759463e-01
      vertex   -1.717166e+00 1.336725e+00 -9.562932e-01
    endloop
  endfacet
  facet normal -8.845926e-08 1.000000e+00 -1.033303e-07
    outer loop
      vertex   -1.717166e+00 1.336725e+00 -9.562932e-01
      vertex   -1.594037e+00 1.336725e+00 -8.759463e-01
      vertex   -1.594037e+00 1.336725e+00 -9.059909e-01
    endloop
  endfacet
  facet normal 1.122046e-13 1.000000e+00 -3.198592e-07
    outer loop
      vertex   -1.015067e+00 1.336725e+00 -6.700101e-01
      vertex   -1.015067e+00 1.336725e+00 -6.694619e-01
      vertex   1.710398e+00 1.336726e+00 4.413066e-01
    endloop
  endfacet
  facet normal 0.000000e+00 1.000000e+00 -3.198590e-07
    outer loop
      vertex   1.710398e+00 1.336726e+00 4.413066e-01
      vertex   -1.015067e+00 1.336725e+00 -6.694619e-01
      vertex   1.703848e+00 1.336726e+00 4.413066e-01
    endloop
  endfacet
  facet normal -1.595421e-13 1.000000e+00 -3.198586e-07
    outer loop
      vertex   -1.594037e+00 1.336725e+00 -9.059909e-01
      vertex   -1.594037e+00 1.336725e+00 -9.060871e-01
      vertex   -1.717166e+00 1.336725e+00 -9.562932e-01
    endloop
  endfacet
  facet normal 1.000000e+00 0.000000e+00 -0.000000e+00
    outer loop
      vertex   -1.015067e+00 -1.336728e+00 -8.759211e-01
      vertex   -1.015067e+00 -1.336728e+00 -6.694618e-01
      vertex   -1.015067e+00 -1.403624e+00 -3.413296e-01
    endloop
  endfacet
  facet normal 1.000000e+00 -0.000000e+00 0.000000e+00
    outer loop
      vertex   -1.015067e+00 -1.403624e+00 -3.413296e-01
      vertex   -1.015067e+00 -1.336728e+00 -6.694618e-01
      vertex   -1.015067e+00 -1.336728e+00 -3.413292e-01
    endloop
  endfacet
  facet normal 2.647576e-12 -5.141959e-06 1.000000e+00
    outer loop
      vertex   -1.015067e+00 -1.336728e+00 -3.413292e-01
      vertex   -1.059443e+00 -1.336728e+00 -3.413292e-01
      vertex   -1.015067e+00 -1.403624e+00 -3.413296e-01
    endloop
  endfacet
  facet normal 2.646808e-12 -5.141959e-06 1.000000e+00
    outer loop
      vertex   -1.015067e+00 -1.403624e+00 -3.413296e-01
      vertex   -1.059443e+00 -1.336728e+00 -3.413292e-01
      vertex   -1.594037e+00 -1.403624e+00 -3.413296e-01
    endloop
  endfacet
  facet normal -5.147470e-07 -1.028388e-06 1.000000e+00
    outer loop
      vertex   -1.059443e+00 -1.336728e+00 -3.413292e-01
      vertex   -1.594037e+00 -1.336728e+00 -3.413295e-01
      vertex   -1.594037e+00 -1.403624e+00 -3.413296e-01
    endloop
  endfacet
  facet normal -1.000000e+00 0.000000e+00 0.000000e+00
    outer loop
      vertex   -1.594037e+00 -1.336728e+00 -3.413295e-01
      vertex   -1.594037e+00 -1.336728e+00 -8.759209e-01
      vertex   -1.594037e+00 -1.403624e+00 -3.413296e-01
    endloop
  endfacet
  facet normal 1.000000e+00 0.000000e+00 -0.000000e+00
    outer loop
      vertex   -1.015067e+00 -1.336728e+00 -9.202997e-01
      vertex   -1.015067e+00 -1.336728e+00 -8.759211e-01
      vertex   -1.015067e+00 -1.403624e+00 -9.202997e-01
    endloop
  endfacet
  facet normal 1.000000e+00 0.000000e+00 0.000000e+00
    outer loop
      vertex   -1.015067e+00 -1.403624e+00 -9.202997e-01
      vertex   -1.015067e+00 -1.336728e+00 -8.759211e-01
      vertex   -1.015067e+00 -1.403624e+00 -3.413296e-01
    endloop
  endfacet
  facet normal -1.324823e-13 -1.000000e+00 2.573736e-07
    outer loop
      vertex   -1.015067e+00 -1.403624e+00 -3.413296e-01
      vertex   -1.594037e+00 -1.403624e+00 -9.203000e-01
      vertex   -1.015067e+00 -1.403624e+00 -9.202997e-01
    endloop
  endfacet
  facet normal 0.000000e+00 0.000000e+00 -1.000000e+00
    outer loop
      vertex   -1.549658e+00 -1.336728e+00 -9.202997e-01
      vertex   -1.015067e+00 -1.336728e+00 -9.202997e-01
      vertex   -1.015067e+00 -1.403624e+00 -9.202997e-01
    endloop
  endfacet
  facet normal 5.147470e-07 -1.000000e+00 -2.573735e-07
    outer loop
      vertex   -1.015067e+00 -1.403624e+00 -3.413296e-01
      vertex   -1.594037e+00 -1.403624e+00 -3.413296e-01
      vertex   -1.594037e+00 -1.403624e+00 -9.203000e-01
    endloop
  endfacet
  facet normal 5.147470e-07 4.113550e-06 -1.000000e+00
    outer loop
      vertex   -1.594037e+00 -1.336728e+00 -9.202997e-01
      vertex   -1.549658e+00 -1.336728e+00 -9.202997e-01
      vertex   -1.594037e+00 -1.403624e+00 -9.203000e-01
    endloop
  endfacet
  facet normal 5.147470e-07 4.113550e-06 -1.000000e+00
    outer loop
      vertex   -1.594037e+00 -1.403624e+00 -9.203000e-01
      vertex   -1.549658e+00 -1.336728e+00 -9.202997e-01
      vertex   -1.015067e+00 -1.403624e+00 -9.202997e-01
    endloop
  endfacet
  facet normal -1.000000e+00 -0.000000e+00 0.000000e+00
    outer loop
      vertex   -1.594037e+00 -1.336728e+00 -9.202997e-01
      vertex   -1.594037e+00 -1.403624e+00 -9.203000e-01
      vertex   -1.594037e+00 -1.336728e+00 -9.059907e-01
    endloop
  endfacet
  facet normal -1.000000e+00 -0.000000e+00 0.000000e+00
    outer loop
      vertex   -1.594037e+00 -1.336728e+00 -9.059907e-01
      vertex   -1.594037e+00 -1.403624e+00 -9.203000e-01
      vertex   -1.594037e+00 -1.336728e+00 -8.759209e-01
    endloop
  endfacet
  facet normal -1.000000e+00 -0.000000e+00 0.000000e+00
    outer loop
      vertex   -1.594037e+00 -1.336728e+00 -8.759209e-01
      vertex   -1.594037e+00 -1.403624e+00 -9.203000e-01
      vertex   -1.594037e+00 -1.403624e+00 -3.413296e-01
    endloop
  endfacet
  facet normal 8.694898e-08 -1.000000e+00 3.202665e-07
    outer loop
      vertex   -1.015067e+00 -1.336728e+00 -8.759211e-01
      vertex   1.024463e+00 -1.336728e+00 -8.759225e-01
      vertex   -1.015067e+00 -1.336728e+00 -6.694618e-01
    endloop
  endfacet
  facet normal 8.694898e-08 -1.000000e+00 3.202665e-07
    outer loop
      vertex   -1.015067e+00 -1.336728e+00 -6.694618e-01
      vertex   1.024463e+00 -1.336728e+00 -8.759225e-01
      vertex   1.024463e+00 -1.336728e+00 -3.413292e-01
    endloop
  endfacet
  facet normal 8.694898e-08 -1.000000e+00 3.202665e-07
    outer loop
      vertex   -1.015067e+00 -1.336728e+00 -6.694618e-01
      vertex   1.024463e+00 -1.336728e+00 -3.413292e-01
      vertex   1.703849e+00 -1.336728e+00 4.413066e-01
    endloop
  endfacet
  facet normal 8.694898e-08 -1.000000e+00 3.202665e-07
    outer loop
      vertex   1.703849e+00 -1.336728e+00 4.413066e-01
      vertex   1.024463e+00 -1.336728e+00 -3.413292e-01
      vertex   1.068838e+00 -1.336728e+00 -3.413292e-01
    endloop
  endfacet
  facet normal 8.694898e-08 -1.000000e+00 3.202665e-07
    outer loop
      vertex   1.703849e+00 -1.336728e+00 4.413066e-01
      vertex   1.068838e+00 -1.336728e+00 -3.413292e-01
      vertex   1.603433e+00 -1.336728e+00 -3.413295e-01
    endloop
  endfacet
  facet normal 8.694898e-08 -1.000000e+00 3.202665e-07
    outer loop
      vertex   -1.015067e+00 -1.336728e+00 -8.759211e-01
      vertex   -1.015067e+00 -1.336728e+00 -9.202997e-01
      vertex   1.024463e+00 -1.336728e+00 -8.759225e-01
    endloop
  endfacet
  facet normal 8.694898e-08 -1.000000e+00 3.202665e-07
    outer loop
      vertex   1.024463e+00 -1.336728e+00 -8.759225e-01
      vertex   -1.015067e+00 -1.336728e+00 -9.202997e-01
      vertex   1.024463e+00 -1.336728e+00 -9.202997e-01
    endloop
  endfacet
  facet normal 8.694898e-08 -1.000000e+00 3.202665e-07
    outer loop
      vertex   1.024463e+00 -1.336728e+00 -9.202997e-01
      vertex   -1.015067e+00 -1.336728e+00 -9.202997e-01
      vertex   1.710399e+00 -1.336728e+00 -9.562929e-01
    endloop
  endfacet
  facet normal 8.694898e-08 -1.000000e+00 3.202665e-07
    outer loop
      vertex   1.024463e+00 -1.336728e+00 -9.202997e-01
      vertex   1.710399e+00 -1.336728e+00 -9.562929e-01
      vertex   1.559057e+00 -1.336728e+00 -9.202997e-01
    endloop
  endfacet
  facet normal 8.694898e-08 -1.000000e+00 3.202665e-07
    outer loop
      vertex   1.559057e+00 -1.336728e+00 -9.202997e-01
      vertex   1.710399e+00 -1.336728e+00 -9.562929e-01
      vertex   1.603433e+00 -1.336728e+00 -9.202997e-01
    endloop
  endfacet
  facet normal 8.694899e-08 -1.000000e+00 3.202665e-07
    outer loop
      vertex   1.603433e+00 -1.336728e+00 -9.202997e-01
      vertex   1.710399e+00 -1.336728e+00 -9.562929e-01
      vertex   1.603433e+00 -1.336728e+00 -8.759231e-01
    endloop
  endfacet
  facet normal 8.694898e-08 -1.000000e+00 3.202665e-07
    outer loop
      vertex   1.603433e+00 -1.336728e+00 -8.759231e-01
      vertex   1.710399e+00 -1.336728e+00 -9.562929e-01
      vertex   1.603433e+00 -1.336728e+00 -3.413295e-01
    endloop
  endfacet
  facet normal 8.694898e-08 -1.000000e+00 3.202665e-07
    outer loop
      vertex   1.603433e+00 -1.336728e+00 -3.413295e-01
      vertex   1.710399e+00 -1.336728e+00 -9.562929e-01
      vertex   1.703849e+00 -1.336728e+00 4.413066e-01
    endloop
  endfacet
  facet normal 8.694898e-08 -1.000000e+00 3.202665e-07
    outer loop
      vertex   1.710399e+00 -1.336728e+00 -9.562929e-01
      vertex   -1.015067e+00 -1.336728e+00 -9.202997e-01
      vertex   -1.717166e+00 -1.336728e+00 -9.562929e-01
    endloop
  endfacet
  facet normal 8.694898e-08 -1.000000e+00 3.202665e-07
    outer loop
      vertex   -1.717166e+00 -1.336728e+00 -9.562929e-01
      vertex   -1.015067e+00 -1.336728e+00 -9.202997e-01
      vertex   -1.549658e+00 -1.336728e+00 -9.202997e-01
    endloop
  endfacet
  facet normal 8.694898e-08 -1.000000e+00 3.202665e-07
    outer loop
      vertex   -1.717166e+00 -1.336728e+00 -9.562929e-01
      vertex   -1.549658e+00 -1.336728e+00 -9.202997e-01
      vertex   -1.594037e+00 -1.336728e+00 -9.202997e-01
    endloop
  endfacet
  facet normal 8.694899e-08 -1.000000e+00 3.202665e-07
    outer loop
      vertex   -1.594037e+00 -1.336728e+00 -9.202997e-01
      vertex   -1.594037e+00 -1.336728e+00 -9.059907e-01
      vertex   -1.717166e+00 -1.336728e+00 -9.562929e-01
    endloop
  endfacet
  facet normal 1.000000e+00 0.000000e+00 -0.000000e+00
    outer loop
      vertex   1.603433e+00 -1.336728e+00 -8.759231e-01
      vertex   1.603433e+00 -1.336728e+00 -3.413295e-01
      vertex   1.603433e+00 -1.403624e+00 -3.413296e-01
    endloop
  endfacet
  facet normal 5.147469e-07 -1.028388e-06 1.000000e+00
    outer loop
      vertex   1.603433e+00 -1.336728e+00 -3.413295e-01
      vertex   1.068838e+00 -1.336728e+00 -3.413292e-01
      vertex   1.603433e+00 -1.403624e+00 -3.413296e-01
    endloop
  endfacet
  facet normal -2.646561e-12 -5.141959e-06 1.000000e+00
    outer loop
      vertex   1.024463e+00 -1.336728e+00 -3.413292e-01
      vertex   1.024463e+00 -1.403624e+00 -3.413296e-01
      vertex   1.068838e+00 -1.336728e+00 -3.413292e-01
    endloop
  endfacet
  facet normal -2.646807e-12 -5.141959e-06 1.000000e+00
    outer loop
      vertex   1.068838e+00 -1.336728e+00 -3.413292e-01
      vertex   1.024463e+00 -1.403624e+00 -3.413296e-01
      vertex   1.603433e+00 -1.403624e+00 -3.413296e-01
    endloop
  endfacet
  facet normal -1.000000e+00 0.000000e+00 0.000000e+00
    outer loop
      vertex   1.024463e+00 -1.336728e+00 -3.413292e-01
      vertex   1.024463e+00 -1.336728e+00 -8.759225e-01
      vertex   1.024463e+00 -1.403624e+00 -3.413296e-01
    endloop
  endfacet
  facet normal -1.000000e+00 0.000000e+00 0.000000e+00
    outer loop
      vertex   1.024463e+00 -1.336728e+00 -9.202997e-01
      vertex   1.024463e+00 -1.403624e+00 -9.202997e-01
      vertex   1.024463e+00 -1.336728e+00 -8.759225e-01
    endloop
  endfacet
  facet normal -1.000000e+00 -0.000000e+00 0.000000e+00
    outer loop
      vertex   1.024463e+00 -1.336728e+00 -8.759225e-01
      vertex   1.024463e+00 -1.403624e+00 -9.202997e-01
      vertex   1.024463e+00 -1.403624e+00 -3.413296e-01
    endloop
  endfacet
  facet normal 0.000000e+00 0.000000e+00 -1.000000e+00
    outer loop
      vertex   1.024463e+00 -1.336728e+00 -9.202997e-01
      vertex   1.559057e+00 -1.336728e+00 -9.202997e-01
      vertex   1.024463e+00 -1.403624e+00 -9.202997e-01
    endloop
  endfacet
  facet normal 1.324822e-13 -1.000000e+00 2.573736e-07
    outer loop
      vertex   1.024463e+00 -1.403624e+00 -3.413296e-01
      vertex   1.024463e+00 -1.403624e+00 -9.202997e-01
      vertex   1.603433e+00 -1.403624e+00 -9.203000e-01
    endloop
  endfacet
  facet normal -5.147469e-07 -1.000000e+00 -2.573735e-07
    outer loop
      vertex   1.024463e+00 -1.403624e+00 -3.413296e-01
      vertex   1.603433e+00 -1.403624e+00 -9.203000e-01
      vertex   1.603433e+00 -1.403624e+00 -3.413296e-01
    endloop
  endfacet
  facet normal -5.147469e-07 4.113550e-06 -1.000000e+00
    outer loop
      vertex   1.603433e+00 -1.336728e+00 -9.202997e-01
      vertex   1.603433e+00 -1.403624e+00 -9.203000e-01
      vertex   1.559057e+00 -1.336728e+00 -9.202997e-01
    endloop
  endfacet
  facet normal -5.147469e-07 4.113550e-06 -1.000000e+00
    outer loop
      vertex   1.559057e+00 -1.336728e+00 -9.202997e-01
      vertex   1.603433e+00 -1.403624e+00 -9.203000e-01
      vertex   1.024463e+00 -1.403624e+00 -9.202997e-01
    endloop
  endfacet
  facet normal 1.000000e+00 0.000000e+00 -0.000000e+00
    outer loop
      vertex   1.603433e+00 -1.336728e+00 -9.202997e-01
      vertex   1.603433e+00 -1.336728e+00 -8.759231e-01
      vertex   1.603433e+00 -1.403624e+00 -9.203000e-01
    endloop
  endfacet
  facet normal 1.000000e+00 0.000000e+00 -0.000000e+00
    outer loop
      vertex   1.603433e+00 -1.403624e+00 -9.203000e-01
      vertex   1.603433e+00 -1.336728e+00 -8.759231e-01
      vertex   1.603433e+00 -1.403624e+00 -3.413296e-01
    endloop
  endfacet
  facet normal 8.954491e-08 -1.000000e+00 3.120799e-07
    outer loop
      vertex   1.664099e+00 1.335907e+00 4.788139e-01
      vertex   1.664099e+00 1.335907e+00 9.562929e-01
      vertex   -1.664099e+00 1.335907e+00 4.788139e-01
    endloop
  endfacet
  facet normal 8.954491e-08 -1.000000e+00 3.120799e-07
    outer loop
      vertex   -1.664099e+00 1.335907e+00 4.788139e-01
      vertex   1.664099e+00 1.335907e+00 9.562929e-01
      vertex   -1.664099e+00 1.335907e+00 9.562929e-01
    endloop
  endfacet
  facet normal 6.410984e-01 -7.674587e-01 -1.784477e-16
    outer loop
      vertex   -2.072409e+00 9.948244e-01 9.562930e-01
      vertex   -2.072409e+00 9.948244e-01 4.788139e-01
      vertex   -1.664099e+00 1.335907e+00 4.788139e-01
    endloop
  endfacet
  facet normal 6.410985e-01 -7.674586e-01 2.395084e-07
    outer loop
      vertex   -1.664099e+00 1.335907e+00 9.562929e-01
      vertex   -2.072409e+00 9.948244e-01 9.562930e-01
      vertex   -1.664099e+00 1.335907e+00 4.788139e-01
    endloop
  endfacet
  facet normal -0.000000e+00 0.000000e+00 1.000000e+00
    outer loop
      vertex   -2.389884e+00 5.458644e-01 9.562930e-01
      vertex   -2.334130e+00 5.331298e-01 9.562930e-01
      vertex   -2.121911e+00 1.018587e+00 9.562930e-01
    endloop
  endfacet
  facet normal 0.000000e+00 0.000000e+00 1.000000e+00
    outer loop
      vertex   -2.121911e+00 1.018587e+00 9.562930e-01
      vertex   -2.334130e+00 5.331298e-01 9.562930e-01
      vertex   -2.072409e+00 9.948244e-01 9.562930e-01
    endloop
  endfacet
  facet normal 6.659162e-08 1.387224e-07 1.000000e+00
    outer loop
      vertex   -2.121911e+00 1.018587e+00 9.562930e-01
      vertex   -2.072409e+00 9.948244e-01 9.562930e-01
      vertex   -1.664099e+00 1.335907e+00 9.562929e-01
    endloop
  endfacet
  facet normal 8.699460e-01 -4.931469e-01 -5.668731e-16
    outer loop
      vertex   -2.334130e+00 5.331298e-01 9.562930e-01
      vertex   -2.334130e+00 5.331298e-01 4.788139e-01
      vertex   -2.072409e+00 9.948244e-01 9.562930e-01
    endloop
  endfacet
  facet normal 8.699460e-01 -4.931469e-01 -1.146654e-16
    outer loop
      vertex   -2.072409e+00 9.948244e-01 9.562930e-01
      vertex   -2.334130e+00 5.331298e-01 4.788139e-01
      vertex   -2.072409e+00 9.948244e-01 4.788139e-01
    endloop
  endfacet
  facet normal 9.848399e-01 -1.734659e-01 4.563642e-16
    outer loop
      vertex   -2.428035e+00 -7.314567e-06 9.562930e-01
      vertex   -2.334130e+00 5.331298e-01 4.788139e-01
      vertex   -2.334130e+00 5.331298e-01 9.562930e-01
    endloop
  endfacet
  facet normal -9.846816e-15 1.397498e-07 1.000000e+00
    outer loop
      vertex   -2.486032e+00 -7.318653e-06 9.562930e-01
      vertex   -2.428035e+00 -7.314567e-06 9.562930e-01
      vertex   -2.334130e+00 5.331298e-01 9.562930e-01
    endloop
  endfacet
  facet normal 2.996972e-08 1.312108e-07 1.000000e+00
    outer loop
      vertex   -2.486032e+00 -7.318653e-06 9.562930e-01
      vertex   -2.334130e+00 5.331298e-01 9.562930e-01
      vertex   -2.389884e+00 5.458644e-01 9.562930e-01
    endloop
  endfacet
  facet normal 8.699458e-01 4.931474e-01 1.146654e-16
    outer loop
      vertex   -2.072409e+00 -9.948390e-01 9.562933e-01
      vertex   -2.072409e+00 -9.948390e-01 4.788141e-01
      vertex   -2.334130e+00 -5.331444e-01 9.562933e-01
    endloop
  endfacet
  facet normal 8.699458e-01 4.931474e-01 1.025536e-15
    outer loop
      vertex   -2.334130e+00 -5.331444e-01 9.562933e-01
      vertex   -2.072409e+00 -9.948390e-01 4.788141e-01
      vertex   -2.334130e+00 -5.331444e-01 4.788141e-01
    endloop
  endfacet
  facet normal 6.410982e-01 7.674588e-01 2.185200e-16
    outer loop
      vertex   -1.664099e+00 -1.335921e+00 9.562933e-01
      vertex   -2.072409e+00 -9.948390e-01 4.788141e-01
      vertex   -2.072409e+00 -9.948390e-01 9.562933e-01
    endloop
  endfacet
  facet normal 6.410984e-01 7.674587e-01 -2.395083e-07
    outer loop
      vertex   -1.664099e+00 -1.335921e+00 9.562933e-01
      vertex   -1.664099e+00 -1.335921e+00 4.788141e-01
      vertex   -2.072409e+00 -9.948390e-01 4.788141e-01
    endloop
  endfacet
  facet normal 8.733674e-08 1.087924e-07 1.000000e+00
    outer loop
      vertex   -2.121911e+00 1.018587e+00 9.562930e-01
      vertex   -1.664099e+00 1.335907e+00 9.562929e-01
      vertex   -1.703848e+00 1.367817e+00 9.562929e-01
    endloop
  endfacet
  facet normal -8.699463e-01 4.931465e-01 0.000000e+00
    outer loop
      vertex   -2.389884e+00 5.458644e-01 4.413066e-01
      vertex   -2.389884e+00 5.458644e-01 9.562930e-01
      vertex   -2.121911e+00 1.018587e+00 9.562930e-01
    endloop
  endfacet
  facet normal -9.848399e-01 1.734657e-01 0.000000e+00
    outer loop
      vertex   -2.486032e+00 -7.318653e-06 9.562930e-01
      vertex   -2.389884e+00 5.458644e-01 9.562930e-01
      vertex   -2.486032e+00 -7.318653e-06 4.413066e-01
    endloop
  endfacet
  facet normal -9.848399e-01 1.734657e-01 0.000000e+00
    outer loop
      vertex   -2.486032e+00 -7.318653e-06 4.413066e-01
      vertex   -2.389884e+00 5.458644e-01 9.562930e-01
      vertex   -2.389884e+00 5.458644e-01 4.413066e-01
    endloop
  endfacet
  facet normal -6.410980e-01 7.674591e-01 1.110324e-07
    outer loop
      vertex   -2.121911e+00 1.018587e+00 4.413066e-01
      vertex   -2.121911e+00 1.018587e+00 9.562930e-01
      vertex   -1.703848e+00 1.367817e+00 9.562929e-01
    endloop
  endfacet
  facet normal -8.699463e-01 4.931465e-01 7.134612e-08
    outer loop
      vertex   -2.389884e+00 5.458644e-01 4.413066e-01
      vertex   -2.121911e+00 1.018587e+00 9.562930e-01
      vertex   -2.121911e+00 1.018587e+00 4.413066e-01
    endloop
  endfacet
  facet normal 9.848399e-01 -1.734659e-01 1.868914e-09
    outer loop
      vertex   -2.428035e+00 -7.314567e-06 9.562930e-01
      vertex   -2.428035e+00 -7.319711e-06 4.788139e-01
      vertex   -2.334130e+00 5.331298e-01 4.788139e-01
    endloop
  endfacet
  facet normal 9.848400e-01 1.734654e-01 -2.706302e-16
    outer loop
      vertex   -2.334130e+00 -5.331444e-01 9.562933e-01
      vertex   -2.334130e+00 -5.331444e-01 4.788141e-01
      vertex   -2.428035e+00 -7.319711e-06 4.788139e-01
    endloop
  endfacet
  facet normal 9.848400e-01 1.734654e-01 -1.868905e-09
    outer loop
      vertex   -2.334130e+00 -5.331444e-01 9.562933e-01
      vertex   -2.428035e+00 -7.319711e-06 4.788139e-01
      vertex   -2.428035e+00 -7.314567e-06 9.562930e-01
    endloop
  endfacet
  facet normal -9.205728e-08 4.030349e-07 1.000000e+00
    outer loop
      vertex   -2.389884e+00 -5.458791e-01 9.562933e-01
      vertex   -2.334130e+00 -5.331444e-01 9.562933e-01
      vertex   -2.428035e+00 -7.314567e-06 9.562930e-01
    endloop
  endfacet
  facet normal -2.885129e-14 4.094687e-07 1.000000e+00
    outer loop
      vertex   -2.389884e+00 -5.458791e-01 9.562933e-01
      vertex   -2.428035e+00 -7.314567e-06 9.562930e-01
      vertex   -2.486032e+00 -7.318653e-06 9.562930e-01
    endloop
  endfacet
  facet normal -9.848400e-01 -1.734652e-01 -0.000000e+00
    outer loop
      vertex   -2.389884e+00 -5.458791e-01 9.562933e-01
      vertex   -2.486032e+00 -7.318653e-06 9.562930e-01
      vertex   -2.389884e+00 -5.458791e-01 4.413066e-01
    endloop
  endfacet
  facet normal -9.848400e-01 -1.734652e-01 0.000000e+00
    outer loop
      vertex   -2.389884e+00 -5.458791e-01 4.413066e-01
      vertex   -2.486032e+00 -7.318653e-06 9.562930e-01
      vertex   -2.486032e+00 -7.318653e-06 4.413066e-01
    endloop
  endfacet
  facet normal 0.000000e+00 0.000000e+00 1.000000e+00
    outer loop
      vertex   -2.072409e+00 -9.948390e-01 9.562933e-01
      vertex   -2.334130e+00 -5.331444e-01 9.562933e-01
      vertex   -2.121911e+00 -1.018602e+00 9.562933e-01
    endloop
  endfacet
  facet normal 0.000000e+00 0.000000e+00 1.000000e+00
    outer loop
      vertex   -2.121911e+00 -1.018602e+00 9.562933e-01
      vertex   -2.334130e+00 -5.331444e-01 9.562933e-01
      vertex   -2.389884e+00 -5.458791e-01 9.562933e-01
    endloop
  endfacet
  facet normal -8.942294e-08 1.113912e-07 1.000000e+00
    outer loop
      vertex   -1.703848e+00 -1.367831e+00 9.562933e-01
      vertex   -1.664099e+00 -1.335921e+00 9.562933e-01
      vertex   -2.072409e+00 -9.948390e-01 9.562933e-01
    endloop
  endfacet
  facet normal -6.503813e-08 1.354862e-07 1.000000e+00
    outer loop
      vertex   -1.703848e+00 -1.367831e+00 9.562933e-01
      vertex   -2.072409e+00 -9.948390e-01 9.562933e-01
      vertex   -2.121911e+00 -1.018602e+00 9.562933e-01
    endloop
  endfacet
  facet normal -6.410977e-01 7.674593e-01 -2.220648e-07
    outer loop
      vertex   -2.121911e+00 1.018587e+00 4.413066e-01
      vertex   -1.703848e+00 1.367817e+00 9.562929e-01
      vertex   -1.703848e+00 1.367817e+00 4.413066e-01
    endloop
  endfacet
  facet normal 0.000000e+00 0.000000e+00 1.000000e+00
    outer loop
      vertex   1.703848e+00 1.367817e+00 9.562929e-01
      vertex   -1.009519e-07 1.367817e+00 9.562929e-01
      vertex   1.664099e+00 1.335907e+00 9.562929e-01
    endloop
  endfacet
  facet normal 0.000000e+00 0.000000e+00 1.000000e+00
    outer loop
      vertex   1.664099e+00 1.335907e+00 9.562929e-01
      vertex   -1.009519e-07 1.367817e+00 9.562929e-01
      vertex   -1.664099e+00 1.335907e+00 9.562929e-01
    endloop
  endfacet
  facet normal 0.000000e+00 -0.000000e+00 1.000000e+00
    outer loop
      vertex   -1.664099e+00 1.335907e+00 9.562929e-01
      vertex   -1.009519e-07 1.367817e+00 9.562929e-01
      vertex   -1.703848e+00 1.367817e+00 9.562929e-01
    endloop
  endfacet
  facet normal -8.699460e-01 -4.931470e-01 -7.134616e-08
    outer loop
      vertex   -2.121911e+00 -1.018602e+00 4.413066e-01
      vertex   -2.121911e+00 -1.018602e+00 9.562933e-01
      vertex   -2.389884e+00 -5.458791e-01 9.562933e-01
    endloop
  endfacet
  facet normal -8.699460e-01 -4.931471e-01 0.000000e+00
    outer loop
      vertex   -2.121911e+00 -1.018602e+00 4.413066e-01
      vertex   -2.389884e+00 -5.458791e-01 9.562933e-01
      vertex   -2.389884e+00 -5.458791e-01 4.413066e-01
    endloop
  endfacet
  facet normal -6.410976e-01 -7.674593e-01 2.220647e-07
    outer loop
      vertex   -1.703848e+00 -1.367831e+00 4.413066e-01
      vertex   -1.703848e+00 -1.367831e+00 9.562933e-01
      vertex   -2.121911e+00 -1.018602e+00 9.562933e-01
    endloop
  endfacet
  facet normal -6.410979e-01 -7.674591e-01 -1.110323e-07
    outer loop
      vertex   -1.703848e+00 -1.367831e+00 4.413066e-01
      vertex   -2.121911e+00 -1.018602e+00 9.562933e-01
      vertex   -2.121911e+00 -1.018602e+00 4.413066e-01
    endloop
  endfacet
  facet normal -2.623677e-07 -1.000000e+00 2.893504e-07
    outer loop
      vertex   1.382061e-07 -1.367832e+00 4.413066e-01
      vertex   1.382061e-07 -1.367832e+00 9.562933e-01
      vertex   -1.703848e+00 -1.367831e+00 4.413066e-01
    endloop
  endfacet
  facet normal -2.623677e-07 -1.000000e+00 2.893504e-07
    outer loop
      vertex   -1.703848e+00 -1.367831e+00 4.413066e-01
      vertex   1.382061e-07 -1.367832e+00 9.562933e-01
      vertex   -1.703848e+00 -1.367831e+00 9.562933e-01
    endloop
  endfacet
  facet normal 0.000000e+00 0.000000e+00 1.000000e+00
    outer loop
      vertex   1.703849e+00 -1.367831e+00 9.562933e-01
      vertex   1.664100e+00 -1.335921e+00 9.562933e-01
      vertex   1.382061e-07 -1.367832e+00 9.562933e-01
    endloop
  endfacet
  facet normal 0.000000e+00 -0.000000e+00 1.000000e+00
    outer loop
      vertex   1.382061e-07 -1.367832e+00 9.562933e-01
      vertex   1.664100e+00 -1.335921e+00 9.562933e-01
      vertex   -1.664099e+00 -1.335921e+00 9.562933e-01
    endloop
  endfacet
  facet normal 0.000000e+00 0.000000e+00 1.000000e+00
    outer loop
      vertex   1.382061e-07 -1.367832e+00 9.562933e-01
      vertex   -1.664099e+00 -1.335921e+00 9.562933e-01
      vertex   -1.703848e+00 -1.367831e+00 9.562933e-01
    endloop
  endfacet
  facet normal -2.623678e-07 1.000000e+00 -2.893507e-07
    outer loop
      vertex   -1.009519e-07 1.367817e+00 4.413066e-01
      vertex   -1.009519e-07 1.367817e+00 9.562929e-01
      vertex   1.703848e+00 1.367817e+00 4.413066e-01
    endloop
  endfacet
  facet normal -2.623678e-07 1.000000e+00 -2.893507e-07
    outer loop
      vertex   1.703848e+00 1.367817e+00 4.413066e-01
      vertex   -1.009519e-07 1.367817e+00 9.562929e-01
      vertex   1.703848e+00 1.367817e+00 9.562929e-01
    endloop
  endfacet
  facet normal 8.745592e-08 1.000000e+00 -2.893507e-07
    outer loop
      vertex   -1.009519e-07 1.367817e+00 9.562929e-01
      vertex   -1.009519e-07 1.367817e+00 4.413066e-01
      vertex   -1.703848e+00 1.367817e+00 9.562929e-01
    endloop
  endfacet
  facet normal 8.745592e-08 1.000000e+00 -2.893507e-07
    outer loop
      vertex   -1.703848e+00 1.367817e+00 9.562929e-01
      vertex   -1.009519e-07 1.367817e+00 4.413066e-01
      vertex   -1.703848e+00 1.367817e+00 4.413066e-01
    endloop
  endfacet
  facet normal 6.410980e-01 7.674591e-01 1.110324e-07
    outer loop
      vertex   2.121911e+00 1.018588e+00 4.413066e-01
      vertex   1.703848e+00 1.367817e+00 9.562929e-01
      vertex   2.121911e+00 1.018588e+00 9.562930e-01
    endloop
  endfacet
  facet normal -8.733674e-08 1.087924e-07 1.000000e+00
    outer loop
      vertex   2.121911e+00 1.018588e+00 9.562930e-01
      vertex   1.703848e+00 1.367817e+00 9.562929e-01
      vertex   1.664099e+00 1.335907e+00 9.562929e-01
    endloop
  endfacet
  facet normal 6.410977e-01 7.674593e-01 -2.220648e-07
    outer loop
      vertex   2.121911e+00 1.018588e+00 4.413066e-01
      vertex   1.703848e+00 1.367817e+00 4.413066e-01
      vertex   1.703848e+00 1.367817e+00 9.562929e-01
    endloop
  endfacet
  facet normal -6.659162e-08 1.387224e-07 1.000000e+00
    outer loop
      vertex   2.121911e+00 1.018588e+00 9.562930e-01
      vertex   1.664099e+00 1.335907e+00 9.562929e-01
      vertex   2.072409e+00 9.948247e-01 9.562930e-01
    endloop
  endfacet
  facet normal -6.410985e-01 -7.674586e-01 2.395084e-07
    outer loop
      vertex   2.072409e+00 9.948247e-01 9.562930e-01
      vertex   1.664099e+00 1.335907e+00 9.562929e-01
      vertex   1.664099e+00 1.335907e+00 4.788139e-01
    endloop
  endfacet
  facet normal -1.000000e+00 0.000000e+00 0.000000e+00
    outer loop
      vertex   -2.110826e+00 -7.915682e-01 -9.562930e-01
      vertex   -2.110826e+00 -7.915678e-01 4.413066e-01
      vertex   -2.110826e+00 3.312265e-06 -9.562932e-01
    endloop
  endfacet
  facet normal -1.000000e+00 0.000000e+00 0.000000e+00
    outer loop
      vertex   -2.110826e+00 3.312265e-06 -9.562932e-01
      vertex   -2.110826e+00 -7.915678e-01 4.413066e-01
      vertex   -2.110826e+00 7.915652e-01 4.413066e-01
    endloop
  endfacet
  facet normal -1.000000e+00 0.000000e+00 0.000000e+00
    outer loop
      vertex   -2.110826e+00 3.312265e-06 -9.562932e-01
      vertex   -2.110826e+00 7.915652e-01 4.413066e-01
      vertex   -2.110826e+00 7.915653e-01 -9.562933e-01
    endloop
  endfacet
  facet normal -8.107264e-01 5.854253e-01 3.120892e-08
    outer loop
      vertex   -1.717166e+00 1.336725e+00 4.413066e-01
      vertex   -2.110826e+00 7.915653e-01 -9.562933e-01
      vertex   -2.110826e+00 7.915652e-01 4.413066e-01
    endloop
  endfacet
  facet normal -8.107262e-01 5.854255e-01 -6.241786e-08
    outer loop
      vertex   -1.717166e+00 1.336725e+00 4.413066e-01
      vertex   -1.717166e+00 1.336725e+00 -9.562932e-01
      vertex   -2.110826e+00 7.915653e-01 -9.562933e-01
    endloop
  endfacet
  facet normal 0.000000e+00 1.000000e+00 -1.066197e-07
    outer loop
      vertex   -1.717166e+00 1.336725e+00 4.413066e-01
      vertex   -1.703848e+00 1.336725e+00 4.413066e-01
      vertex   -1.717166e+00 1.336725e+00 -9.562932e-01
    endloop
  endfacet
  facet normal 4.372795e-07 -1.000000e+00 2.893504e-07
    outer loop
      vertex   1.703849e+00 -1.367831e+00 4.413066e-01
      vertex   1.703849e+00 -1.367831e+00 9.562933e-01
      vertex   1.382061e-07 -1.367832e+00 4.413066e-01
    endloop
  endfacet
  facet normal 4.372795e-07 -1.000000e+00 2.893504e-07
    outer loop
      vertex   1.382061e-07 -1.367832e+00 4.413066e-01
      vertex   1.703849e+00 -1.367831e+00 9.562933e-01
      vertex   1.382061e-07 -1.367832e+00 9.562933e-01
    endloop
  endfacet
  facet normal -6.410982e-01 7.674588e-01 3.277800e-16
    outer loop
      vertex   1.664100e+00 -1.335921e+00 9.562933e-01
      vertex   2.072409e+00 -9.948387e-01 9.562933e-01
      vertex   2.072409e+00 -9.948387e-01 4.788141e-01
    endloop
  endfacet
  facet normal -6.410984e-01 7.674587e-01 -2.395083e-07
    outer loop
      vertex   1.664100e+00 -1.335921e+00 9.562933e-01
      vertex   2.072409e+00 -9.948387e-01 4.788141e-01
      vertex   1.664100e+00 -1.335921e+00 4.788141e-01
    endloop
  endfacet
  facet normal 8.942294e-08 1.113912e-07 1.000000e+00
    outer loop
      vertex   1.703849e+00 -1.367831e+00 9.562933e-01
      vertex   2.072409e+00 -9.948387e-01 9.562933e-01
      vertex   1.664100e+00 -1.335921e+00 9.562933e-01
    endloop
  endfacet
  facet normal 6.503813e-08 1.354862e-07 1.000000e+00
    outer loop
      vertex   1.703849e+00 -1.367831e+00 9.562933e-01
      vertex   2.121912e+00 -1.018602e+00 9.562933e-01
      vertex   2.072409e+00 -9.948387e-01 9.562933e-01
    endloop
  endfacet
  facet normal 6.410976e-01 -7.674593e-01 2.220647e-07
    outer loop
      vertex   1.703849e+00 -1.367831e+00 4.413066e-01
      vertex   2.121912e+00 -1.018602e+00 9.562933e-01
      vertex   1.703849e+00 -1.367831e+00 9.562933e-01
    endloop
  endfacet
  facet normal -8.745591e-08 1.000000e+00 -1.057863e-07
    outer loop
      vertex   -1.594037e+00 1.336725e+00 -8.560788e-01
      vertex   -1.717166e+00 1.336725e+00 -9.562932e-01
      vertex   -1.594037e+00 1.336725e+00 -3.413293e-01
    endloop
  endfacet
  facet normal -8.745592e-08 1.000000e+00 -1.057863e-07
    outer loop
      vertex   -1.594037e+00 1.336725e+00 -3.413293e-01
      vertex   -1.717166e+00 1.336725e+00 -9.562932e-01
      vertex   -1.703848e+00 1.336725e+00 4.413066e-01
    endloop
  endfacet
  facet normal -8.745592e-08 1.000000e+00 -1.057863e-07
    outer loop
      vertex   -1.594037e+00 1.336725e+00 -3.413293e-01
      vertex   -1.703848e+00 1.336725e+00 4.413066e-01
      vertex   -1.059422e+00 1.336725e+00 -3.413290e-01
    endloop
  endfacet
  facet normal -8.745592e-08 1.000000e+00 -1.057863e-07
    outer loop
      vertex   -1.059422e+00 1.336725e+00 -3.413290e-01
      vertex   -1.703848e+00 1.336725e+00 4.413066e-01
      vertex   -1.015067e+00 1.336725e+00 -3.413290e-01
    endloop
  endfacet
  facet normal -8.745592e-08 1.000000e+00 -1.057863e-07
    outer loop
      vertex   -1.015067e+00 1.336725e+00 -3.413290e-01
      vertex   -1.703848e+00 1.336725e+00 4.413066e-01
      vertex   -9.823379e-08 1.336725e+00 4.413066e-01
    endloop
  endfacet
  facet normal -8.745591e-08 1.000000e+00 -1.057863e-07
    outer loop
      vertex   -1.015067e+00 1.336725e+00 -3.413290e-01
      vertex   -9.823379e-08 1.336725e+00 4.413066e-01
      vertex   -1.015067e+00 1.336725e+00 -3.848552e-01
    endloop
  endfacet
  facet normal 8.699460e-01 4.931470e-01 7.134620e-08
    outer loop
      vertex   2.389884e+00 5.458649e-01 4.413066e-01
      vertex   2.121911e+00 1.018588e+00 4.413066e-01
      vertex   2.121911e+00 1.018588e+00 9.562930e-01
    endloop
  endfacet
  facet normal 8.699460e-01 4.931471e-01 -0.000000e+00
    outer loop
      vertex   2.389884e+00 5.458649e-01 4.413066e-01
      vertex   2.121911e+00 1.018588e+00 9.562930e-01
      vertex   2.389884e+00 5.458649e-01 9.562930e-01
    endloop
  endfacet
  facet normal 0.000000e+00 0.000000e+00 1.000000e+00
    outer loop
      vertex   2.389884e+00 5.458649e-01 9.562930e-01
      vertex   2.121911e+00 1.018588e+00 9.562930e-01
      vertex   2.334130e+00 5.331301e-01 9.562930e-01
    endloop
  endfacet
  facet normal 0.000000e+00 0.000000e+00 1.000000e+00
    outer loop
      vertex   2.334130e+00 5.331301e-01 9.562930e-01
      vertex   2.121911e+00 1.018588e+00 9.562930e-01
      vertex   2.072409e+00 9.948247e-01 9.562930e-01
    endloop
  endfacet
  facet normal -6.410984e-01 -7.674587e-01 -1.784477e-16
    outer loop
      vertex   2.072409e+00 9.948247e-01 9.562930e-01
      vertex   1.664099e+00 1.335907e+00 4.788139e-01
      vertex   2.072409e+00 9.948247e-01 4.788139e-01
    endloop
  endfacet
  facet normal -8.699458e-01 -4.931474e-01 -1.146655e-16
    outer loop
      vertex   2.072409e+00 9.948247e-01 9.562930e-01
      vertex   2.072409e+00 9.948247e-01 4.788139e-01
      vertex   2.334130e+00 5.331301e-01 9.562930e-01
    endloop
  endfacet
  facet normal -8.699458e-01 -4.931474e-01 -5.668747e-16
    outer loop
      vertex   2.334130e+00 5.331301e-01 9.562930e-01
      vertex   2.072409e+00 9.948247e-01 4.788139e-01
      vertex   2.334130e+00 5.331301e-01 4.788139e-01
    endloop
  endfacet
  facet normal -8.107262e-01 -5.854255e-01 1.560447e-07
    outer loop
      vertex   -2.110826e+00 -7.915678e-01 4.413066e-01
      vertex   -2.110826e+00 -7.915682e-01 -9.562930e-01
      vertex   -1.717166e+00 -1.336728e+00 -9.562929e-01
    endloop
  endfacet
  facet normal -8.107262e-01 -5.854255e-01 1.872536e-07
    outer loop
      vertex   -2.110826e+00 -7.915678e-01 4.413066e-01
      vertex   -1.717166e+00 -1.336728e+00 -9.562929e-01
      vertex   -1.717166e+00 -1.336728e+00 4.413066e-01
    endloop
  endfacet
  facet normal 8.228675e-15 -9.412505e-08 -1.000000e+00
    outer loop
      vertex   1.945975e+00 3.666922e-06 -9.562932e-01
      vertex   -2.110826e+00 3.312265e-06 -9.562932e-01
      vertex   -2.110826e+00 7.915653e-01 -9.562933e-01
    endloop
  endfacet
  facet normal 3.106302e-08 6.507479e-08 -1.000000e+00
    outer loop
      vertex   1.945975e+00 3.666922e-06 -9.562932e-01
      vertex   -2.110826e+00 7.915653e-01 -9.562933e-01
      vertex   1.945975e+00 1.144930e+00 -9.562931e-01
    endloop
  endfacet
  facet normal 2.649335e-08 1.175370e-07 -1.000000e+00
    outer loop
      vertex   -1.717166e+00 1.336725e+00 -9.562932e-01
      vertex   1.945975e+00 1.144930e+00 -9.562931e-01
      vertex   -2.110826e+00 7.915653e-01 -9.562933e-01
    endloop
  endfacet
  facet normal 3.377660e-14 -3.884646e-07 -1.000000e+00
    outer loop
      vertex   -1.717166e+00 1.336725e+00 -9.562932e-01
      vertex   1.710398e+00 1.336725e+00 -9.562932e-01
      vertex   1.945975e+00 1.144930e+00 -9.562931e-01
    endloop
  endfacet
  facet normal 8.745590e-08 -1.000000e+00 3.190257e-07
    outer loop
      vertex   -1.015067e+00 -1.336728e+00 -6.694618e-01
      vertex   1.703849e+00 -1.336728e+00 4.413066e-01
      vertex   -1.015067e+00 -1.336728e+00 -3.413292e-01
    endloop
  endfacet
  facet normal 8.745590e-08 -1.000000e+00 3.190257e-07
    outer loop
      vertex   -1.015067e+00 -1.336728e+00 -3.413292e-01
      vertex   1.703849e+00 -1.336728e+00 4.413066e-01
      vertex   -1.703848e+00 -1.336728e+00 4.413066e-01
    endloop
  endfacet
  facet normal 8.745590e-08 -1.000000e+00 3.190257e-07
    outer loop
      vertex   -1.015067e+00 -1.336728e+00 -3.413292e-01
      vertex   -1.703848e+00 -1.336728e+00 4.413066e-01
      vertex   -1.059443e+00 -1.336728e+00 -3.413292e-01
    endloop
  endfacet
  facet normal 8.745590e-08 -1.000000e+00 3.190257e-07
    outer loop
      vertex   -1.059443e+00 -1.336728e+00 -3.413292e-01
      vertex   -1.703848e+00 -1.336728e+00 4.413066e-01
      vertex   -1.594037e+00 -1.336728e+00 -3.413295e-01
    endloop
  endfacet
  facet normal 8.745591e-08 -1.000000e+00 3.190257e-07
    outer loop
      vertex   -1.594037e+00 -1.336728e+00 -3.413295e-01
      vertex   -1.703848e+00 -1.336728e+00 4.413066e-01
      vertex   -1.717166e+00 -1.336728e+00 -9.562929e-01
    endloop
  endfacet
  facet normal 8.745590e-08 -1.000000e+00 3.190257e-07
    outer loop
      vertex   -1.594037e+00 -1.336728e+00 -3.413295e-01
      vertex   -1.717166e+00 -1.336728e+00 -9.562929e-01
      vertex   -1.594037e+00 -1.336728e+00 -8.759209e-01
    endloop
  endfacet
  facet normal 8.745590e-08 -1.000000e+00 3.190257e-07
    outer loop
      vertex   -1.594037e+00 -1.336728e+00 -8.759209e-01
      vertex   -1.717166e+00 -1.336728e+00 -9.562929e-01
      vertex   -1.594037e+00 -1.336728e+00 -9.059907e-01
    endloop
  endfacet
  facet normal 0.000000e+00 -1.000000e+00 3.198590e-07
    outer loop
      vertex   -1.703848e+00 -1.336728e+00 4.413066e-01
      vertex   -1.717166e+00 -1.336728e+00 4.413066e-01
      vertex   -1.717166e+00 -1.336728e+00 -9.562929e-01
    endloop
  endfacet
  facet normal 0.000000e+00 -1.000000e+00 3.198590e-07
    outer loop
      vertex   1.710399e+00 -1.336728e+00 4.413066e-01
      vertex   1.703849e+00 -1.336728e+00 4.413066e-01
      vertex   1.710399e+00 -1.336728e+00 -9.562929e-01
    endloop
  endfacet
  facet normal 6.410979e-01 -7.674591e-01 -1.110323e-07
    outer loop
      vertex   1.703849e+00 -1.367831e+00 4.413066e-01
      vertex   2.121912e+00 -1.018602e+00 4.413066e-01
      vertex   2.121912e+00 -1.018602e+00 9.562933e-01
    endloop
  endfacet
  facet normal -8.699461e-01 4.931469e-01 9.044148e-16
    outer loop
      vertex   2.334130e+00 -5.331440e-01 9.562933e-01
      vertex   2.334130e+00 -5.331440e-01 4.788141e-01
      vertex   2.072409e+00 -9.948387e-01 9.562933e-01
    endloop
  endfacet
  facet normal -8.699461e-01 4.931469e-01 2.293306e-16
    outer loop
      vertex   2.072409e+00 -9.948387e-01 9.562933e-01
      vertex   2.334130e+00 -5.331440e-01 4.788141e-01
      vertex   2.072409e+00 -9.948387e-01 4.788141e-01
    endloop
  endfacet
  facet normal 0.000000e+00 0.000000e+00 1.000000e+00
    outer loop
      vertex   2.389884e+00 -5.458787e-01 9.562933e-01
      vertex   2.334130e+00 -5.331440e-01 9.562933e-01
      vertex   2.121912e+00 -1.018602e+00 9.562933e-01
    endloop
  endfacet
  facet normal 0.000000e+00 -0.000000e+00 1.000000e+00
    outer loop
      vertex   2.121912e+00 -1.018602e+00 9.562933e-01
      vertex   2.334130e+00 -5.331440e-01 9.562933e-01
      vertex   2.072409e+00 -9.948387e-01 9.562933e-01
    endloop
  endfacet
  facet normal 8.699463e-01 -4.931465e-01 -7.134608e-08
    outer loop
      vertex   2.121912e+00 -1.018602e+00 4.413066e-01
      vertex   2.389884e+00 -5.458787e-01 9.562933e-01
      vertex   2.121912e+00 -1.018602e+00 9.562933e-01
    endloop
  endfacet
  facet normal 6.313657e-01 7.754852e-01 -8.268196e-08
    outer loop
      vertex   1.945975e+00 1.144930e+00 4.413066e-01
      vertex   1.710398e+00 1.336725e+00 -9.562932e-01
      vertex   1.710398e+00 1.336726e+00 4.413066e-01
    endloop
  endfacet
  facet normal 6.313653e-01 7.754856e-01 4.134100e-08
    outer loop
      vertex   1.945975e+00 1.144930e+00 4.413066e-01
      vertex   1.945975e+00 1.144930e+00 -9.562931e-01
      vertex   1.710398e+00 1.336725e+00 -9.562932e-01
    endloop
  endfacet
  facet normal 9.848399e-01 1.734657e-01 -0.000000e+00
    outer loop
      vertex   2.389884e+00 5.458649e-01 4.413066e-01
      vertex   2.389884e+00 5.458649e-01 9.562930e-01
      vertex   2.486032e+00 -6.883982e-06 4.413066e-01
    endloop
  endfacet
  facet normal 9.848399e-01 1.734657e-01 -0.000000e+00
    outer loop
      vertex   2.486032e+00 -6.883982e-06 4.413066e-01
      vertex   2.389884e+00 5.458649e-01 9.562930e-01
      vertex   2.486032e+00 -6.883982e-06 9.562930e-01
    endloop
  endfacet
  facet normal 1.000000e+00 6.507477e-07 3.480321e-14
    outer loop
      vertex   1.945975e+00 3.592176e-06 4.413066e-01
      vertex   1.945975e+00 3.666922e-06 -9.562932e-01
      vertex   1.945975e+00 1.144930e+00 4.413066e-01
    endloop
  endfacet
  facet normal 1.000000e+00 6.507477e-07 3.469125e-14
    outer loop
      vertex   1.945975e+00 1.144930e+00 4.413066e-01
      vertex   1.945975e+00 3.666922e-06 -9.562932e-01
      vertex   1.945975e+00 1.144930e+00 -9.562931e-01
    endloop
  endfacet
  facet normal 0.000000e+00 0.000000e+00 -1.000000e+00
    outer loop
      vertex   1.703849e+00 -1.336728e+00 4.413066e-01
      vertex   1.710399e+00 -1.336728e+00 4.413066e-01
      vertex   1.703849e+00 -1.367831e+00 4.413066e-01
    endloop
  endfacet
  facet normal 0.000000e+00 0.000000e+00 -1.000000e+00
    outer loop
      vertex   1.703849e+00 -1.367831e+00 4.413066e-01
      vertex   1.710399e+00 -1.336728e+00 4.413066e-01
      vertex   1.945975e+00 -1.144932e+00 4.413066e-01
    endloop
  endfacet
  facet normal 0.000000e+00 0.000000e+00 -1.000000e+00
    outer loop
      vertex   1.703849e+00 -1.367831e+00 4.413066e-01
      vertex   1.945975e+00 -1.144932e+00 4.413066e-01
      vertex   2.121912e+00 -1.018602e+00 4.413066e-01
    endloop
  endfacet
  facet normal -0.000000e+00 0.000000e+00 -1.000000e+00
    outer loop
      vertex   2.121912e+00 -1.018602e+00 4.413066e-01
      vertex   1.945975e+00 -1.144932e+00 4.413066e-01
      vertex   1.945975e+00 3.592176e-06 4.413066e-01
    endloop
  endfacet
  facet normal 0.000000e+00 0.000000e+00 -1.000000e+00
    outer loop
      vertex   2.121912e+00 -1.018602e+00 4.413066e-01
      vertex   1.945975e+00 3.592176e-06 4.413066e-01
      vertex   2.389884e+00 -5.458787e-01 4.413066e-01
    endloop
  endfacet
  facet normal 0.000000e+00 0.000000e+00 -1.000000e+00
    outer loop
      vertex   2.389884e+00 -5.458787e-01 4.413066e-01
      vertex   1.945975e+00 3.592176e-06 4.413066e-01
      vertex   2.486032e+00 -6.883982e-06 4.413066e-01
    endloop
  endfacet
  facet normal 0.000000e+00 0.000000e+00 -1.000000e+00
    outer loop
      vertex   2.486032e+00 -6.883982e-06 4.413066e-01
      vertex   1.945975e+00 3.592176e-06 4.413066e-01
      vertex   2.389884e+00 5.458649e-01 4.413066e-01
    endloop
  endfacet
  facet normal -0.000000e+00 0.000000e+00 -1.000000e+00
    outer loop
      vertex   2.389884e+00 5.458649e-01 4.413066e-01
      vertex   1.945975e+00 3.592176e-06 4.413066e-01
      vertex   2.121911e+00 1.018588e+00 4.413066e-01
    endloop
  endfacet
  facet normal -0.000000e+00 0.000000e+00 -1.000000e+00
    outer loop
      vertex   2.121911e+00 1.018588e+00 4.413066e-01
      vertex   1.945975e+00 3.592176e-06 4.413066e-01
      vertex   1.945975e+00 1.144930e+00 4.413066e-01
    endloop
  endfacet
  facet normal 0.000000e+00 0.000000e+00 -1.000000e+00
    outer loop
      vertex   2.121911e+00 1.018588e+00 4.413066e-01
      vertex   1.945975e+00 1.144930e+00 4.413066e-01
      vertex   1.703848e+00 1.367817e+00 4.413066e-01
    endloop
  endfacet
  facet normal 0.000000e+00 0.000000e+00 -1.000000e+00
    outer loop
      vertex   1.703848e+00 1.367817e+00 4.413066e-01
      vertex   1.945975e+00 1.144930e+00 4.413066e-01
      vertex   1.710398e+00 1.336726e+00 4.413066e-01
    endloop
  endfacet
  facet normal 0.000000e+00 0.000000e+00 -1.000000e+00
    outer loop
      vertex   1.703848e+00 1.367817e+00 4.413066e-01
      vertex   1.710398e+00 1.336726e+00 4.413066e-01
      vertex   1.703848e+00 1.336726e+00 4.413066e-01
    endloop
  endfacet
  facet normal -0.000000e+00 0.000000e+00 -1.000000e+00
    outer loop
      vertex   1.703848e+00 1.336726e+00 4.413066e-01
      vertex   1.932565e-02 1.336725e+00 4.413066e-01
      vertex   1.703848e+00 1.367817e+00 4.413066e-01
    endloop
  endfacet
  facet normal 0.000000e+00 0.000000e+00 -1.000000e+00
    outer loop
      vertex   1.703848e+00 1.367817e+00 4.413066e-01
      vertex   1.932565e-02 1.336725e+00 4.413066e-01
      vertex   -1.009519e-07 1.367817e+00 4.413066e-01
    endloop
  endfacet
  facet normal 0.000000e+00 0.000000e+00 -1.000000e+00
    outer loop
      vertex   -1.009519e-07 1.367817e+00 4.413066e-01
      vertex   1.932565e-02 1.336725e+00 4.413066e-01
      vertex   -9.823379e-08 1.336725e+00 4.413066e-01
    endloop
  endfacet
  facet normal -0.000000e+00 -0.000000e+00 -1.000000e+00
    outer loop
      vertex   -1.009519e-07 1.367817e+00 4.413066e-01
      vertex   -9.823379e-08 1.336725e+00 4.413066e-01
      vertex   -1.703848e+00 1.367817e+00 4.413066e-01
    endloop
  endfacet
  facet normal 0.000000e+00 0.000000e+00 -1.000000e+00
    outer loop
      vertex   -1.703848e+00 1.367817e+00 4.413066e-01
      vertex   -9.823379e-08 1.336725e+00 4.413066e-01
      vertex   -1.703848e+00 1.336725e+00 4.413066e-01
    endloop
  endfacet
  facet normal 0.000000e+00 -0.000000e+00 -1.000000e+00
    outer loop
      vertex   -1.703848e+00 1.367817e+00 4.413066e-01
      vertex   -1.703848e+00 1.336725e+00 4.413066e-01
      vertex   -1.717166e+00 1.336725e+00 4.413066e-01
    endloop
  endfacet
  facet normal 0.000000e+00 0.000000e+00 -1.000000e+00
    outer loop
      vertex   -1.703848e+00 1.367817e+00 4.413066e-01
      vertex   -1.717166e+00 1.336725e+00 4.413066e-01
      vertex   -2.121911e+00 1.018587e+00 4.413066e-01
    endloop
  endfacet
  facet normal 0.000000e+00 0.000000e+00 -1.000000e+00
    outer loop
      vertex   -2.121911e+00 1.018587e+00 4.413066e-01
      vertex   -1.717166e+00 1.336725e+00 4.413066e-01
      vertex   -2.110826e+00 7.915652e-01 4.413066e-01
    endloop
  endfacet
  facet normal 0.000000e+00 -0.000000e+00 -1.000000e+00
    outer loop
      vertex   -2.121911e+00 1.018587e+00 4.413066e-01
      vertex   -2.110826e+00 7.915652e-01 4.413066e-01
      vertex   -2.389884e+00 5.458644e-01 4.413066e-01
    endloop
  endfacet
  facet normal 0.000000e+00 -0.000000e+00 -1.000000e+00
    outer loop
      vertex   -2.389884e+00 5.458644e-01 4.413066e-01
      vertex   -2.110826e+00 7.915652e-01 4.413066e-01
      vertex   -2.486032e+00 -7.318653e-06 4.413066e-01
    endloop
  endfacet
  facet normal 0.000000e+00 0.000000e+00 -1.000000e+00
    outer loop
      vertex   -2.486032e+00 -7.318653e-06 4.413066e-01
      vertex   -2.110826e+00 7.915652e-01 4.413066e-01
      vertex   -2.110826e+00 -7.915678e-01 4.413066e-01
    endloop
  endfacet
  facet normal 0.000000e+00 0.000000e+00 -1.000000e+00
    outer loop
      vertex   -2.486032e+00 -7.318653e-06 4.413066e-01
      vertex   -2.110826e+00 -7.915678e-01 4.413066e-01
      vertex   -2.389884e+00 -5.458791e-01 4.413066e-01
    endloop
  endfacet
  facet normal 0.000000e+00 0.000000e+00 -1.000000e+00
    outer loop
      vertex   -2.389884e+00 -5.458791e-01 4.413066e-01
      vertex   -2.110826e+00 -7.915678e-01 4.413066e-01
      vertex   -2.121911e+00 -1.018602e+00 4.413066e-01
    endloop
  endfacet
  facet normal 0.000000e+00 0.000000e+00 -1.000000e+00
    outer loop
      vertex   -2.121911e+00 -1.018602e+00 4.413066e-01
      vertex   -2.110826e+00 -7.915678e-01 4.413066e-01
      vertex   -1.717166e+00 -1.336728e+00 4.413066e-01
    endloop
  endfacet
  facet normal 0.000000e+00 0.000000e+00 -1.000000e+00
    outer loop
      vertex   -2.121911e+00 -1.018602e+00 4.413066e-01
      vertex   -1.717166e+00 -1.336728e+00 4.413066e-01
      vertex   -1.703848e+00 -1.367831e+00 4.413066e-01
    endloop
  endfacet
  facet normal 0.000000e+00 0.000000e+00 -1.000000e+00
    outer loop
      vertex   -1.703848e+00 -1.367831e+00 4.413066e-01
      vertex   -1.717166e+00 -1.336728e+00 4.413066e-01
      vertex   -1.703848e+00 -1.336728e+00 4.413066e-01
    endloop
  endfacet
  facet normal 0.000000e+00 0.000000e+00 -1.000000e+00
    outer loop
      vertex   -1.703848e+00 -1.367831e+00 4.413066e-01
      vertex   -1.703848e+00 -1.336728e+00 4.413066e-01
      vertex   1.382061e-07 -1.367832e+00 4.413066e-01
    endloop
  endfacet
  facet normal 0.000000e+00 0.000000e+00 -1.000000e+00
    outer loop
      vertex   1.382061e-07 -1.367832e+00 4.413066e-01
      vertex   -1.703848e+00 -1.336728e+00 4.413066e-01
      vertex   1.703849e+00 -1.336728e+00 4.413066e-01
    endloop
  endfacet
  facet normal 0.000000e+00 0.000000e+00 -1.000000e+00
    outer loop
      vertex   1.382061e-07 -1.367832e+00 4.413066e-01
      vertex   1.703849e+00 -1.336728e+00 4.413066e-01
      vertex   1.703849e+00 -1.367831e+00 4.413066e-01
    endloop
  endfacet
  facet normal 8.699463e-01 -4.931465e-01 0.000000e+00
    outer loop
      vertex   2.121912e+00 -1.018602e+00 4.413066e-01
      vertex   2.389884e+00 -5.458787e-01 4.413066e-01
      vertex   2.389884e+00 -5.458787e-01 9.562933e-01
    endloop
  endfacet
  facet normal -2.996988e-08 1.312108e-07 1.000000e+00
    outer loop
      vertex   2.486032e+00 -6.883982e-06 9.562930e-01
      vertex   2.389884e+00 5.458649e-01 9.562930e-01
      vertex   2.334130e+00 5.331301e-01 9.562930e-01
    endloop
  endfacet
  facet normal -9.848400e-01 -1.734654e-01 4.295193e-16
    outer loop
      vertex   2.428035e+00 -6.890036e-06 9.562930e-01
      vertex   2.334130e+00 5.331301e-01 9.562930e-01
      vertex   2.334130e+00 5.331301e-01 4.788139e-01
    endloop
  endfacet
  facet normal -1.458729e-14 1.397498e-07 1.000000e+00
    outer loop
      vertex   2.486032e+00 -6.883982e-06 9.562930e-01
      vertex   2.334130e+00 5.331301e-01 9.562930e-01
      vertex   2.428035e+00 -6.890036e-06 9.562930e-01
    endloop
  endfacet
  facet normal 2.468573e-14 -2.823717e-07 -1.000000e+00
    outer loop
      vertex   1.945975e+00 3.666922e-06 -9.562932e-01
      vertex   -2.110826e+00 -7.915682e-01 -9.562930e-01
      vertex   -2.110826e+00 3.312265e-06 -9.562932e-01
    endloop
  endfacet
  facet normal -4.239954e-08 -6.507421e-08 -1.000000e+00
    outer loop
      vertex   1.945975e+00 3.666922e-06 -9.562932e-01
      vertex   1.945975e+00 -1.144932e+00 -9.562931e-01
      vertex   -2.110826e+00 -7.915682e-01 -9.562930e-01
    endloop
  endfacet
  facet normal -5.190003e-08 -1.741448e-07 -1.000000e+00
    outer loop
      vertex   -1.717166e+00 -1.336728e+00 -9.562929e-01
      vertex   -2.110826e+00 -7.915682e-01 -9.562930e-01
      vertex   1.945975e+00 -1.144932e+00 -9.562931e-01
    endloop
  endfacet
  facet normal 1.013296e-13 -1.165392e-06 -1.000000e+00
    outer loop
      vertex   -1.717166e+00 -1.336728e+00 -9.562929e-01
      vertex   1.945975e+00 -1.144932e+00 -9.562931e-01
      vertex   1.710399e+00 -1.336728e+00 -9.562929e-01
    endloop
  endfacet
  facet normal 1.000000e+00 -3.904454e-07 1.040729e-13
    outer loop
      vertex   1.945975e+00 -1.144932e+00 -9.562931e-01
      vertex   1.945975e+00 3.666922e-06 -9.562932e-01
      vertex   1.945975e+00 -1.144932e+00 4.413066e-01
    endloop
  endfacet
  facet normal 1.000000e+00 -3.904455e-07 -2.088176e-14
    outer loop
      vertex   1.945975e+00 -1.144932e+00 4.413066e-01
      vertex   1.945975e+00 3.666922e-06 -9.562932e-01
      vertex   1.945975e+00 3.592176e-06 4.413066e-01
    endloop
  endfacet
  facet normal 6.313660e-01 -7.754850e-01 2.480459e-07
    outer loop
      vertex   1.710399e+00 -1.336728e+00 4.413066e-01
      vertex   1.710399e+00 -1.336728e+00 -9.562929e-01
      vertex   1.945975e+00 -1.144932e+00 -9.562931e-01
    endloop
  endfacet
  facet normal 6.313659e-01 -7.754851e-01 2.067049e-07
    outer loop
      vertex   1.710399e+00 -1.336728e+00 4.413066e-01
      vertex   1.945975e+00 -1.144932e+00 -9.562931e-01
      vertex   1.945975e+00 -1.144932e+00 4.413066e-01
    endloop
  endfacet
  facet normal -9.848401e-01 1.734649e-01 -9.446010e-16
    outer loop
      vertex   2.334130e+00 -5.331440e-01 9.562933e-01
      vertex   2.428035e+00 -6.895180e-06 4.788139e-01
      vertex   2.334130e+00 -5.331440e-01 4.788141e-01
    endloop
  endfacet
  facet normal 9.205676e-08 4.030350e-07 1.000000e+00
    outer loop
      vertex   2.389884e+00 -5.458787e-01 9.562933e-01
      vertex   2.428035e+00 -6.890036e-06 9.562930e-01
      vertex   2.334130e+00 -5.331440e-01 9.562933e-01
    endloop
  endfacet
  facet normal -9.848401e-01 1.734649e-01 -1.868899e-09
    outer loop
      vertex   2.334130e+00 -5.331440e-01 9.562933e-01
      vertex   2.428035e+00 -6.890036e-06 9.562930e-01
      vertex   2.428035e+00 -6.895180e-06 4.788139e-01
    endloop
  endfacet
  facet normal -4.274095e-14 4.094687e-07 1.000000e+00
    outer loop
      vertex   2.389884e+00 -5.458787e-01 9.562933e-01
      vertex   2.486032e+00 -6.883982e-06 9.562930e-01
      vertex   2.428035e+00 -6.890036e-06 9.562930e-01
    endloop
  endfacet
  facet normal 9.848400e-01 -1.734652e-01 0.000000e+00
    outer loop
      vertex   2.486032e+00 -6.883982e-06 4.413066e-01
      vertex   2.486032e+00 -6.883982e-06 9.562930e-01
      vertex   2.389884e+00 -5.458787e-01 4.413066e-01
    endloop
  endfacet
  facet normal 9.848400e-01 -1.734652e-01 0.000000e+00
    outer loop
      vertex   2.389884e+00 -5.458787e-01 4.413066e-01
      vertex   2.486032e+00 -6.883982e-06 9.562930e-01
      vertex   2.389884e+00 -5.458787e-01 9.562933e-01
    endloop
  endfacet
  facet normal -9.848400e-01 -1.734654e-01 1.868908e-09
    outer loop
      vertex   2.428035e+00 -6.890036e-06 9.562930e-01
      vertex   2.334130e+00 5.331301e-01 4.788139e-01
      vertex   2.428035e+00 -6.895180e-06 4.788139e-01
    endloop
  endfacet
  facet normal 0.000000e+00 0.000000e+00 1.000000e+00
    outer loop
      vertex   2.334130e+00 5.331301e-01 4.788139e-01
      vertex   -2.334130e+00 5.331298e-01 4.788139e-01
      vertex   2.428035e+00 -6.895180e-06 4.788139e-01
    endloop
  endfacet
  facet normal 0.000000e+00 0.000000e+00 1.000000e+00
    outer loop
      vertex   2.428035e+00 -6.895180e-06 4.788139e-01
      vertex   -2.334130e+00 5.331298e-01 4.788139e-01
      vertex   -2.428035e+00 -7.319711e-06 4.788139e-01
    endloop
  endfacet
  facet normal -2.443464e-14 2.794996e-07 1.000000e+00
    outer loop
      vertex   2.428035e+00 -6.895180e-06 4.788139e-01
      vertex   -2.428035e+00 -7.319711e-06 4.788139e-01
      vertex   -2.334130e+00 -5.331444e-01 4.788141e-01
    endloop
  endfacet
  facet normal 0.000000e+00 0.000000e+00 1.000000e+00
    outer loop
      vertex   2.334130e+00 5.331301e-01 4.788139e-01
      vertex   2.072409e+00 9.948247e-01 4.788139e-01
      vertex   -2.334130e+00 5.331298e-01 4.788139e-01
    endloop
  endfacet
  facet normal 0.000000e+00 0.000000e+00 1.000000e+00
    outer loop
      vertex   -2.334130e+00 5.331298e-01 4.788139e-01
      vertex   2.072409e+00 9.948247e-01 4.788139e-01
      vertex   -2.072409e+00 9.948244e-01 4.788139e-01
    endloop
  endfacet
  facet normal -1.849741e-15 2.572565e-08 1.000000e+00
    outer loop
      vertex   -2.072409e+00 9.948244e-01 4.788139e-01
      vertex   2.072409e+00 9.948247e-01 4.788139e-01
      vertex   -1.664099e+00 1.335907e+00 4.788139e-01
    endloop
  endfacet
  facet normal -4.388479e-15 2.572562e-08 1.000000e+00
    outer loop
      vertex   -1.664099e+00 1.335907e+00 4.788139e-01
      vertex   2.072409e+00 9.948247e-01 4.788139e-01
      vertex   1.664099e+00 1.335907e+00 4.788139e-01
    endloop
  endfacet
  facet normal -2.230418e-14 2.794996e-07 1.000000e+00
    outer loop
      vertex   2.428035e+00 -6.895180e-06 4.788139e-01
      vertex   -2.334130e+00 -5.331444e-01 4.788141e-01
      vertex   2.334130e+00 -5.331440e-01 4.788141e-01
    endloop
  endfacet
  facet normal 0.000000e+00 0.000000e+00 1.000000e+00
    outer loop
      vertex   2.334130e+00 -5.331440e-01 4.788141e-01
      vertex   -2.334130e+00 -5.331444e-01 4.788141e-01
      vertex   -2.072409e+00 -9.948390e-01 4.788141e-01
    endloop
  endfacet
  facet normal 0.000000e+00 0.000000e+00 1.000000e+00
    outer loop
      vertex   2.334130e+00 -5.331440e-01 4.788141e-01
      vertex   -2.072409e+00 -9.948390e-01 4.788141e-01
      vertex   2.072409e+00 -9.948387e-01 4.788141e-01
    endloop
  endfacet
  facet normal -3.114379e-15 4.331385e-08 1.000000e+00
    outer loop
      vertex   2.072409e+00 -9.948387e-01 4.788141e-01
      vertex   -2.072409e+00 -9.948390e-01 4.788141e-01
      vertex   1.664100e+00 -1.335921e+00 4.788141e-01
    endloop
  endfacet
  facet normal -1.645528e-12 4.329586e-08 1.000000e+00
    outer loop
      vertex   1.664100e+00 -1.335921e+00 4.788141e-01
      vertex   -2.072409e+00 -9.948390e-01 4.788141e-01
      vertex   -1.664099e+00 -1.335921e+00 4.788141e-01
    endloop
  endfacet
  facet normal -8.954490e-08 1.000000e+00 -3.120797e-07
    outer loop
      vertex   1.664100e+00 -1.335921e+00 9.562933e-01
      vertex   1.664100e+00 -1.335921e+00 4.788141e-01
      vertex   -1.664099e+00 -1.335921e+00 9.562933e-01
    endloop
  endfacet
  facet normal -8.954490e-08 1.000000e+00 -3.120797e-07
    outer loop
      vertex   -1.664099e+00 -1.335921e+00 9.562933e-01
      vertex   1.664100e+00 -1.335921e+00 4.788141e-01
      vertex   -1.664099e+00 -1.335921e+00 4.788141e-01
    endloop
  endfacet
endsolid
