solid ASCII
  facet normal -0.000000e+00 1.000000e+00 0.000000e+00
    outer loop
      vertex   -4.494167e-01 1.402110e+00 -1.134811e-02
      vertex   -2.623383e-01 1.402110e+00 6.614225e-02
      vertex   -2.623384e-01 1.402110e+00 -8.883850e-02
    endloop
  endfacet
  facet normal 0.000000e+00 1.000000e+00 0.000000e+00
    outer loop
      vertex   -4.494167e-01 1.402110e+00 -1.134811e-02
      vertex   -2.623384e-01 1.402110e+00 -8.883850e-02
      vertex   -3.719263e-01 1.402110e+00 -1.984264e-01
    endloop
  endfacet
  facet normal 0.000000e+00 1.000000e+00 0.000000e+00
    outer loop
      vertex   -4.494167e-01 1.402110e+00 -1.134811e-02
      vertex   -3.719263e-01 1.402110e+00 -1.984264e-01
      vertex   -5.269070e-01 1.402110e+00 -1.984264e-01
    endloop
  endfacet
  facet normal 0.000000e+00 1.000000e+00 0.000000e+00
    outer loop
      vertex   -4.494167e-01 1.402110e+00 -1.134811e-02
      vertex   -5.269070e-01 1.402110e+00 -1.984264e-01
      vertex   -6.364949e-01 1.402110e+00 -8.883846e-02
    endloop
  endfacet
  facet normal 0.000000e+00 1.000000e+00 0.000000e+00
    outer loop
      vertex   -4.494167e-01 1.402110e+00 -1.134811e-02
      vertex   -6.364949e-01 1.402110e+00 -8.883846e-02
      vertex   -6.364949e-01 1.402110e+00 6.614225e-02
    endloop
  endfacet
  facet normal 0.000000e+00 1.000000e+00 0.000000e+00
    outer loop
      vertex   -4.494167e-01 1.402110e+00 -1.134811e-02
      vertex   -6.364949e-01 1.402110e+00 6.614225e-02
      vertex   -5.269070e-01 1.402110e+00 1.757302e-01
    endloop
  endfacet
  facet normal 0.000000e+00 1.000000e+00 -0.000000e+00
    outer loop
      vertex   -4.494167e-01 1.402110e+00 -1.134811e-02
      vertex   -5.269070e-01 1.402110e+00 1.757302e-01
      vertex   -3.719263e-01 1.402110e+00 1.757302e-01
    endloop
  endfacet
  facet normal 0.000000e+00 1.000000e+00 0.000000e+00
    outer loop
      vertex   -3.719263e-01 1.402110e+00 1.757302e-01
      vertex   -2.623383e-01 1.402110e+00 6.614225e-02
      vertex   -4.494167e-01 1.402110e+00 -1.134811e-02
    endloop
  endfacet
  facet normal 6.427875e-01 7.660445e-01 -1.203620e-07
    outer loop
      vertex   9.205922e-02 1.166662e+00 1.757302e-01
      vertex   1.760085e-01 1.096221e+00 6.614229e-02
      vertex   3.269824e-02 1.216472e+00 -1.134809e-02
    endloop
  endfacet
  facet normal 6.427874e-01 7.660446e-01 -6.508820e-08
    outer loop
      vertex   3.269824e-02 1.216472e+00 -1.134809e-02
      vertex   -2.666289e-02 1.266282e+00 1.757302e-01
      vertex   9.205922e-02 1.166662e+00 1.757302e-01
    endloop
  endfacet
  facet normal 6.427873e-01 7.660447e-01 -1.327735e-07
    outer loop
      vertex   3.269824e-02 1.216472e+00 -1.134809e-02
      vertex   -1.106121e-01 1.336724e+00 6.614228e-02
      vertex   -2.666289e-02 1.266282e+00 1.757302e-01
    endloop
  endfacet
  facet normal 6.427874e-01 7.660447e-01 1.158807e-07
    outer loop
      vertex   3.269824e-02 1.216472e+00 -1.134809e-02
      vertex   -1.106121e-01 1.336724e+00 -8.883841e-02
      vertex   -1.106121e-01 1.336724e+00 6.614228e-02
    endloop
  endfacet
  facet normal 6.427873e-01 7.660447e-01 2.779086e-07
    outer loop
      vertex   3.269824e-02 1.216472e+00 -1.134809e-02
      vertex   -2.666284e-02 1.266282e+00 -1.984264e-01
      vertex   -1.106121e-01 1.336724e+00 -8.883841e-02
    endloop
  endfacet
  facet normal 6.427877e-01 7.660444e-01 7.254348e-08
    outer loop
      vertex   3.269824e-02 1.216472e+00 -1.134809e-02
      vertex   9.205927e-02 1.166662e+00 -1.984264e-01
      vertex   -2.666284e-02 1.266282e+00 -1.984264e-01
    endloop
  endfacet
  facet normal 6.427875e-01 7.660445e-01 -2.277403e-08
    outer loop
      vertex   3.269824e-02 1.216472e+00 -1.134809e-02
      vertex   1.760085e-01 1.096221e+00 -8.883844e-02
      vertex   9.205927e-02 1.166662e+00 -1.984264e-01
    endloop
  endfacet
  facet normal 6.427875e-01 7.660445e-01 -7.725380e-08
    outer loop
      vertex   3.269824e-02 1.216472e+00 -1.134809e-02
      vertex   1.760085e-01 1.096221e+00 6.614229e-02
      vertex   1.760085e-01 1.096221e+00 -8.883844e-02
    endloop
  endfacet
  facet normal 8.660255e-01 4.999999e-01 -4.163352e-07
    outer loop
      vertex   3.849676e-01 8.005955e-01 -1.134804e-02
      vertex   4.785068e-01 6.385810e-01 6.614233e-02
      vertex   4.785067e-01 6.385810e-01 -8.883839e-02
    endloop
  endfacet
  facet normal 8.660255e-01 4.999999e-01 -3.197401e-07
    outer loop
      vertex   3.849676e-01 8.005955e-01 -1.134804e-02
      vertex   4.785067e-01 6.385810e-01 -8.883839e-02
      vertex   4.237127e-01 7.334869e-01 -1.984263e-01
    endloop
  endfacet
  facet normal 8.660258e-01 4.999993e-01 -5.954785e-08
    outer loop
      vertex   3.849676e-01 8.005955e-01 -1.134804e-02
      vertex   4.237127e-01 7.334869e-01 -1.984263e-01
      vertex   3.462224e-01 8.677042e-01 -1.984264e-01
    endloop
  endfacet
  facet normal 8.660253e-01 5.000001e-01 3.217529e-07
    outer loop
      vertex   3.849676e-01 8.005955e-01 -1.134804e-02
      vertex   3.462224e-01 8.677042e-01 -1.984264e-01
      vertex   2.914284e-01 9.626102e-01 -8.883839e-02
    endloop
  endfacet
  facet normal 8.660254e-01 5.000001e-01 2.081676e-07
    outer loop
      vertex   3.849676e-01 8.005955e-01 -1.134804e-02
      vertex   2.914284e-01 9.626102e-01 -8.883839e-02
      vertex   2.914284e-01 9.626102e-01 6.614232e-02
    endloop
  endfacet
  facet normal 8.660253e-01 5.000001e-01 8.356288e-09
    outer loop
      vertex   3.849676e-01 8.005955e-01 -1.134804e-02
      vertex   2.914284e-01 9.626102e-01 6.614232e-02
      vertex   3.462224e-01 8.677042e-01 1.757302e-01
    endloop
  endfacet
  facet normal 8.660253e-01 5.000002e-01 -4.001773e-08
    outer loop
      vertex   3.849676e-01 8.005955e-01 -1.134804e-02
      vertex   3.462224e-01 8.677042e-01 1.757302e-01
      vertex   4.237128e-01 7.334870e-01 1.757303e-01
    endloop
  endfacet
  facet normal 8.660254e-01 5.000000e-01 -1.645146e-07
    outer loop
      vertex   4.237128e-01 7.334870e-01 1.757303e-01
      vertex   4.785068e-01 6.385810e-01 6.614233e-02
      vertex   3.849676e-01 8.005955e-01 -1.134804e-02
    endloop
  endfacet
  facet normal 9.848078e-01 1.736478e-01 -2.056171e-07
    outer loop
      vertex   5.817008e-01 2.041043e-01 1.757304e-01
      vertex   6.007305e-01 9.618104e-02 6.614241e-02
      vertex   5.682448e-01 2.804173e-01 -1.134794e-02
    endloop
  endfacet
  facet normal 9.848077e-01 1.736483e-01 -1.432800e-08
    outer loop
      vertex   5.682448e-01 2.804173e-01 -1.134794e-02
      vertex   5.547887e-01 3.567305e-01 1.757303e-01
      vertex   5.817008e-01 2.041043e-01 1.757304e-01
    endloop
  endfacet
  facet normal 9.848077e-01 1.736487e-01 -2.038938e-07
    outer loop
      vertex   5.682448e-01 2.804173e-01 -1.134794e-02
      vertex   5.357588e-01 4.646535e-01 6.614238e-02
      vertex   5.547887e-01 3.567305e-01 1.757303e-01
    endloop
  endfacet
  facet normal 9.848077e-01 1.736484e-01 4.734390e-07
    outer loop
      vertex   5.682448e-01 2.804173e-01 -1.134794e-02
      vertex   5.357589e-01 4.646535e-01 -8.883827e-02
      vertex   5.357588e-01 4.646535e-01 6.614238e-02
    endloop
  endfacet
  facet normal 9.848078e-01 1.736481e-01 -2.706707e-07
    outer loop
      vertex   5.682448e-01 2.804173e-01 -1.134794e-02
      vertex   5.547886e-01 3.567304e-01 -1.984263e-01
      vertex   5.357589e-01 4.646535e-01 -8.883827e-02
    endloop
  endfacet
  facet normal 9.848078e-01 1.736480e-01 -3.403418e-07
    outer loop
      vertex   5.682448e-01 2.804173e-01 -1.134794e-02
      vertex   5.817007e-01 2.041042e-01 -1.984262e-01
      vertex   5.547886e-01 3.567304e-01 -1.984263e-01
    endloop
  endfacet
  facet normal 9.848078e-01 1.736480e-01 -3.432761e-07
    outer loop
      vertex   5.682448e-01 2.804173e-01 -1.134794e-02
      vertex   6.007305e-01 9.618118e-02 -8.883828e-02
      vertex   5.817007e-01 2.041042e-01 -1.984262e-01
    endloop
  endfacet
  facet normal 9.848078e-01 1.736479e-01 -6.975967e-08
    outer loop
      vertex   5.682448e-01 2.804173e-01 -1.134794e-02
      vertex   6.007305e-01 9.618104e-02 6.614241e-02
      vertex   6.007305e-01 9.618118e-02 -8.883828e-02
    endloop
  endfacet
  facet normal 1.736488e-01 -9.848076e-01 -9.886179e-07
    outer loop
      vertex   5.590336e-01 8.882887e-02 -8.883818e-02
      vertex   6.007305e-01 9.618118e-02 -8.883828e-02
      vertex   6.007305e-01 9.618104e-02 6.614241e-02
    endloop
  endfacet
  facet normal 1.736448e-01 -9.848083e-01 1.009192e-07
    outer loop
      vertex   5.590335e-01 8.882888e-02 6.614247e-02
      vertex   5.590336e-01 8.882887e-02 -8.883818e-02
      vertex   6.007305e-01 9.618104e-02 6.614241e-02
    endloop
  endfacet
  facet normal 1.227904e-01 -6.963640e-01 -7.071066e-01
    outer loop
      vertex   5.400039e-01 1.967518e-01 -1.984263e-01
      vertex   5.817007e-01 2.041042e-01 -1.984262e-01
      vertex   6.007305e-01 9.618118e-02 -8.883828e-02
    endloop
  endfacet
  facet normal 1.227867e-01 -6.963654e-01 -7.071058e-01
    outer loop
      vertex   5.590336e-01 8.882887e-02 -8.883818e-02
      vertex   5.400039e-01 1.967518e-01 -1.984263e-01
      vertex   6.007305e-01 9.618118e-02 -8.883828e-02
    endloop
  endfacet
  facet normal 1.362334e-06 -1.259029e-07 -1.000000e+00
    outer loop
      vertex   5.130918e-01 3.493781e-01 -1.984263e-01
      vertex   5.547886e-01 3.567304e-01 -1.984263e-01
      vertex   5.817007e-01 2.041042e-01 -1.984262e-01
    endloop
  endfacet
  facet normal 9.499637e-07 -3.206544e-07 -1.000000e+00
    outer loop
      vertex   5.400039e-01 1.967518e-01 -1.984263e-01
      vertex   5.130918e-01 3.493781e-01 -1.984263e-01
      vertex   5.817007e-01 2.041042e-01 -1.984262e-01
    endloop
  endfacet
  facet normal -1.227880e-01 6.963644e-01 -7.071066e-01
    outer loop
      vertex   4.940620e-01 4.573012e-01 -8.883832e-02
      vertex   5.357589e-01 4.646535e-01 -8.883827e-02
      vertex   5.547886e-01 3.567304e-01 -1.984263e-01
    endloop
  endfacet
  facet normal -1.227880e-01 6.963644e-01 -7.071066e-01
    outer loop
      vertex   5.130918e-01 3.493781e-01 -1.984263e-01
      vertex   4.940620e-01 4.573012e-01 -8.883832e-02
      vertex   5.547886e-01 3.567304e-01 -1.984263e-01
    endloop
  endfacet
  facet normal -1.736513e-01 9.848072e-01 -8.348156e-08
    outer loop
      vertex   4.940620e-01 4.573011e-01 6.614250e-02
      vertex   5.357588e-01 4.646535e-01 6.614238e-02
      vertex   5.357589e-01 4.646535e-01 -8.883827e-02
    endloop
  endfacet
  facet normal -1.736496e-01 9.848075e-01 3.899578e-07
    outer loop
      vertex   4.940620e-01 4.573012e-01 -8.883832e-02
      vertex   4.940620e-01 4.573011e-01 6.614250e-02
      vertex   5.357589e-01 4.646535e-01 -8.883827e-02
    endloop
  endfacet
  facet normal -1.227893e-01 6.963638e-01 7.071070e-01
    outer loop
      vertex   5.130918e-01 3.493780e-01 1.757304e-01
      vertex   5.547887e-01 3.567305e-01 1.757303e-01
      vertex   5.357588e-01 4.646535e-01 6.614238e-02
    endloop
  endfacet
  facet normal -1.227881e-01 6.963638e-01 7.071072e-01
    outer loop
      vertex   4.940620e-01 4.573011e-01 6.614250e-02
      vertex   5.130918e-01 3.493780e-01 1.757304e-01
      vertex   5.357588e-01 4.646535e-01 6.614238e-02
    endloop
  endfacet
  facet normal -4.457622e-06 -5.376131e-08 1.000000e+00
    outer loop
      vertex   5.400039e-01 1.967516e-01 1.757302e-01
      vertex   5.817008e-01 2.041043e-01 1.757304e-01
      vertex   5.547887e-01 3.567305e-01 1.757303e-01
    endloop
  endfacet
  facet normal 2.808150e-06 -7.252446e-07 1.000000e+00
    outer loop
      vertex   5.130918e-01 3.493780e-01 1.757304e-01
      vertex   5.400039e-01 1.967516e-01 1.757302e-01
      vertex   5.547887e-01 3.567305e-01 1.757303e-01
    endloop
  endfacet
  facet normal 1.227904e-01 -6.963641e-01 7.071065e-01
    outer loop
      vertex   5.817008e-01 2.041043e-01 1.757304e-01
      vertex   5.400039e-01 1.967516e-01 1.757302e-01
      vertex   5.590335e-01 8.882888e-02 6.614247e-02
    endloop
  endfacet
  facet normal 1.227863e-01 -6.963640e-01 7.071073e-01
    outer loop
      vertex   6.007305e-01 9.618104e-02 6.614241e-02
      vertex   5.817008e-01 2.041043e-01 1.757304e-01
      vertex   5.590335e-01 8.882888e-02 6.614247e-02
    endloop
  endfacet
  facet normal 3.535545e-01 -6.123718e-01 7.071068e-01
    outer loop
      vertex   4.237128e-01 7.334870e-01 1.757303e-01
      vertex   3.870453e-01 7.123167e-01 1.757301e-01
      vertex   4.418390e-01 6.174109e-01 6.614241e-02
    endloop
  endfacet
  facet normal 3.535539e-01 -6.123720e-01 7.071069e-01
    outer loop
      vertex   4.785068e-01 6.385810e-01 6.614233e-02
      vertex   4.237128e-01 7.334870e-01 1.757303e-01
      vertex   4.418390e-01 6.174109e-01 6.614241e-02
    endloop
  endfacet
  facet normal -4.050228e-06 -1.783288e-06 1.000000e+00
    outer loop
      vertex   3.870453e-01 7.123167e-01 1.757301e-01
      vertex   4.237128e-01 7.334870e-01 1.757303e-01
      vertex   3.462224e-01 8.677042e-01 1.757302e-01
    endloop
  endfacet
  facet normal 2.565956e-06 -4.510645e-08 1.000000e+00
    outer loop
      vertex   3.095549e-01 8.465340e-01 1.757303e-01
      vertex   3.870453e-01 7.123167e-01 1.757301e-01
      vertex   3.462224e-01 8.677042e-01 1.757302e-01
    endloop
  endfacet
  facet normal -3.535550e-01 6.123713e-01 7.071069e-01
    outer loop
      vertex   3.095549e-01 8.465340e-01 1.757303e-01
      vertex   3.462224e-01 8.677042e-01 1.757302e-01
      vertex   2.914284e-01 9.626102e-01 6.614232e-02
    endloop
  endfacet
  facet normal -3.535528e-01 6.123721e-01 7.071074e-01
    outer loop
      vertex   2.547608e-01 9.414400e-01 6.614244e-02
      vertex   3.095549e-01 8.465340e-01 1.757303e-01
      vertex   2.914284e-01 9.626102e-01 6.614232e-02
    endloop
  endfacet
  facet normal -5.000018e-01 8.660243e-01 -1.201861e-07
    outer loop
      vertex   2.547608e-01 9.414400e-01 6.614244e-02
      vertex   2.914284e-01 9.626102e-01 6.614232e-02
      vertex   2.914284e-01 9.626102e-01 -8.883839e-02
    endloop
  endfacet
  facet normal -5.000014e-01 8.660246e-01 0.000000e+00
    outer loop
      vertex   2.547608e-01 9.414400e-01 -8.883839e-02
      vertex   2.547608e-01 9.414400e-01 6.614244e-02
      vertex   2.914284e-01 9.626102e-01 -8.883839e-02
    endloop
  endfacet
  facet normal -3.535544e-01 6.123719e-01 -7.071067e-01
    outer loop
      vertex   2.547608e-01 9.414400e-01 -8.883839e-02
      vertex   2.914284e-01 9.626102e-01 -8.883839e-02
      vertex   3.462224e-01 8.677042e-01 -1.984264e-01
    endloop
  endfacet
  facet normal -3.535542e-01 6.123721e-01 -7.071067e-01
    outer loop
      vertex   3.095548e-01 8.465341e-01 -1.984264e-01
      vertex   2.547608e-01 9.414400e-01 -8.883839e-02
      vertex   3.462224e-01 8.677042e-01 -1.984264e-01
    endloop
  endfacet
  facet normal 2.403717e-07 -4.163349e-07 -1.000000e+00
    outer loop
      vertex   3.095548e-01 8.465341e-01 -1.984264e-01
      vertex   3.462224e-01 8.677042e-01 -1.984264e-01
      vertex   4.237127e-01 7.334869e-01 -1.984263e-01
    endloop
  endfacet
  facet normal 8.821581e-07 2.317576e-07 -1.000000e+00
    outer loop
      vertex   3.870451e-01 7.123169e-01 -1.984263e-01
      vertex   3.095548e-01 8.465341e-01 -1.984264e-01
      vertex   4.237127e-01 7.334869e-01 -1.984263e-01
    endloop
  endfacet
  facet normal 3.535546e-01 -6.123716e-01 -7.071069e-01
    outer loop
      vertex   3.870451e-01 7.123169e-01 -1.984263e-01
      vertex   4.237127e-01 7.334869e-01 -1.984263e-01
      vertex   4.785067e-01 6.385810e-01 -8.883839e-02
    endloop
  endfacet
  facet normal 3.535528e-01 -6.123731e-01 -7.071064e-01
    outer loop
      vertex   4.418391e-01 6.174109e-01 -8.883830e-02
      vertex   3.870451e-01 7.123169e-01 -1.984263e-01
      vertex   4.785067e-01 6.385810e-01 -8.883839e-02
    endloop
  endfacet
  facet normal 5.000007e-01 -8.660250e-01 -2.403715e-07
    outer loop
      vertex   4.418391e-01 6.174109e-01 -8.883830e-02
      vertex   4.785067e-01 6.385810e-01 -8.883839e-02
      vertex   4.785068e-01 6.385810e-01 6.614233e-02
    endloop
  endfacet
  facet normal 4.999992e-01 -8.660259e-01 2.403708e-07
    outer loop
      vertex   4.418390e-01 6.174109e-01 6.614241e-02
      vertex   4.418391e-01 6.174109e-01 -8.883830e-02
      vertex   4.785068e-01 6.385810e-01 6.614233e-02
    endloop
  endfacet
  facet normal 7.660462e-01 -6.427855e-01 -9.206772e-08
    outer loop
      vertex   1.487928e-01 1.063786e+00 -8.883835e-02
      vertex   1.760085e-01 1.096221e+00 -8.883844e-02
      vertex   1.760085e-01 1.096221e+00 6.614229e-02
    endloop
  endfacet
  facet normal 7.660445e-01 -6.427875e-01 6.312517e-07
    outer loop
      vertex   1.487928e-01 1.063786e+00 6.614234e-02
      vertex   1.487928e-01 1.063786e+00 -8.883835e-02
      vertex   1.760085e-01 1.096221e+00 6.614229e-02
    endloop
  endfacet
  facet normal 5.416762e-01 -4.545183e-01 -7.071068e-01
    outer loop
      vertex   6.484360e-02 1.134228e+00 -1.984264e-01
      vertex   9.205927e-02 1.166662e+00 -1.984264e-01
      vertex   1.760085e-01 1.096221e+00 -8.883844e-02
    endloop
  endfacet
  facet normal 5.416757e-01 -4.545194e-01 -7.071065e-01
    outer loop
      vertex   1.487928e-01 1.063786e+00 -8.883835e-02
      vertex   6.484360e-02 1.134228e+00 -1.984264e-01
      vertex   1.760085e-01 1.096221e+00 -8.883844e-02
    endloop
  endfacet
  facet normal 4.669128e-07 1.824937e-07 -1.000000e+00
    outer loop
      vertex   -5.387856e-02 1.233848e+00 -1.984264e-01
      vertex   -2.666284e-02 1.266282e+00 -1.984264e-01
      vertex   9.205927e-02 1.166662e+00 -1.984264e-01
    endloop
  endfacet
  facet normal 6.576232e-07 5.967494e-07 -1.000000e+00
    outer loop
      vertex   6.484360e-02 1.134228e+00 -1.984264e-01
      vertex   -5.387856e-02 1.233848e+00 -1.984264e-01
      vertex   9.205927e-02 1.166662e+00 -1.984264e-01
    endloop
  endfacet
  facet normal -5.416744e-01 4.545210e-01 -7.071064e-01
    outer loop
      vertex   -1.378278e-01 1.304289e+00 -8.883842e-02
      vertex   -1.106121e-01 1.336724e+00 -8.883841e-02
      vertex   -2.666284e-02 1.266282e+00 -1.984264e-01
    endloop
  endfacet
  facet normal -5.416753e-01 4.545194e-01 -7.071067e-01
    outer loop
      vertex   -5.387856e-02 1.233848e+00 -1.984264e-01
      vertex   -1.378278e-01 1.304289e+00 -8.883842e-02
      vertex   -2.666284e-02 1.266282e+00 -1.984264e-01
    endloop
  endfacet
  facet normal -7.660437e-01 6.427885e-01 -1.381012e-07
    outer loop
      vertex   -1.378278e-01 1.304289e+00 6.614239e-02
      vertex   -1.106121e-01 1.336724e+00 6.614228e-02
      vertex   -1.106121e-01 1.336724e+00 -8.883841e-02
    endloop
  endfacet
  facet normal -7.660430e-01 6.427893e-01 1.381009e-07
    outer loop
      vertex   -1.378278e-01 1.304289e+00 -8.883842e-02
      vertex   -1.378278e-01 1.304289e+00 6.614239e-02
      vertex   -1.106121e-01 1.336724e+00 -8.883841e-02
    endloop
  endfacet
  facet normal -5.416771e-01 4.545176e-01 7.071066e-01
    outer loop
      vertex   -5.387842e-02 1.233848e+00 1.757303e-01
      vertex   -2.666289e-02 1.266282e+00 1.757302e-01
      vertex   -1.106121e-01 1.336724e+00 6.614228e-02
    endloop
  endfacet
  facet normal -5.416729e-01 4.545210e-01 7.071076e-01
    outer loop
      vertex   -1.378278e-01 1.304289e+00 6.614239e-02
      vertex   -5.387842e-02 1.233848e+00 1.757303e-01
      vertex   -1.106121e-01 1.336724e+00 6.614228e-02
    endloop
  endfacet
  facet normal -2.446358e-06 -2.541507e-06 1.000000e+00
    outer loop
      vertex   6.484374e-02 1.134228e+00 1.757301e-01
      vertex   9.205922e-02 1.166662e+00 1.757302e-01
      vertex   -2.666289e-02 1.266282e+00 1.757302e-01
    endloop
  endfacet
  facet normal 1.676945e-06 3.157255e-07 1.000000e+00
    outer loop
      vertex   -5.387842e-02 1.233848e+00 1.757303e-01
      vertex   6.484374e-02 1.134228e+00 1.757301e-01
      vertex   -2.666289e-02 1.266282e+00 1.757302e-01
    endloop
  endfacet
  facet normal 5.416769e-01 -4.545177e-01 7.071067e-01
    outer loop
      vertex   9.205922e-02 1.166662e+00 1.757302e-01
      vertex   6.484374e-02 1.134228e+00 1.757301e-01
      vertex   1.487928e-01 1.063786e+00 6.614234e-02
    endloop
  endfacet
  facet normal 5.416757e-01 -4.545186e-01 7.071070e-01
    outer loop
      vertex   1.760085e-01 1.096221e+00 6.614229e-02
      vertex   9.205922e-02 1.166662e+00 1.757302e-01
      vertex   1.487928e-01 1.063786e+00 6.614234e-02
    endloop
  endfacet
  facet normal 7.071070e-01 2.177515e-06 7.071065e-01
    outer loop
      vertex   -3.719263e-01 1.402110e+00 1.757302e-01
      vertex   -3.719261e-01 1.359770e+00 1.757301e-01
      vertex   -2.623384e-01 1.359770e+00 6.614232e-02
    endloop
  endfacet
  facet normal 7.071067e-01 3.110736e-07 7.071069e-01
    outer loop
      vertex   -2.623383e-01 1.402110e+00 6.614225e-02
      vertex   -3.719263e-01 1.402110e+00 1.757302e-01
      vertex   -2.623384e-01 1.359770e+00 6.614232e-02
    endloop
  endfacet
  facet normal -2.403712e-07 -3.079469e-06 1.000000e+00
    outer loop
      vertex   -3.719261e-01 1.359770e+00 1.757301e-01
      vertex   -3.719263e-01 1.402110e+00 1.757302e-01
      vertex   -5.269070e-01 1.402110e+00 1.757302e-01
    endloop
  endfacet
  facet normal 1.081670e-06 1.759701e-06 1.000000e+00
    outer loop
      vertex   -5.269068e-01 1.359770e+00 1.757302e-01
      vertex   -3.719261e-01 1.359770e+00 1.757301e-01
      vertex   -5.269070e-01 1.402110e+00 1.757302e-01
    endloop
  endfacet
  facet normal -7.071069e-01 -1.866440e-06 7.071066e-01
    outer loop
      vertex   -5.269068e-01 1.359770e+00 1.757302e-01
      vertex   -5.269070e-01 1.402110e+00 1.757302e-01
      vertex   -6.364949e-01 1.402110e+00 6.614225e-02
    endloop
  endfacet
  facet normal -7.071062e-01 1.944209e-06 7.071074e-01
    outer loop
      vertex   -6.364949e-01 1.359770e+00 6.614236e-02
      vertex   -5.269068e-01 1.359770e+00 1.757302e-01
      vertex   -6.364949e-01 1.402110e+00 6.614225e-02
    endloop
  endfacet
  facet normal -1.000000e+00 0.000000e+00 0.000000e+00
    outer loop
      vertex   -6.364949e-01 1.359770e+00 6.614236e-02
      vertex   -6.364949e-01 1.402110e+00 6.614225e-02
      vertex   -6.364949e-01 1.402110e+00 -8.883846e-02
    endloop
  endfacet
  facet normal -1.000000e+00 1.759696e-06 4.807422e-07
    outer loop
      vertex   -6.364950e-01 1.359770e+00 -8.883843e-02
      vertex   -6.364949e-01 1.359770e+00 6.614236e-02
      vertex   -6.364949e-01 1.402110e+00 -8.883846e-02
    endloop
  endfacet
  facet normal -7.071069e-01 7.776834e-07 -7.071066e-01
    outer loop
      vertex   -6.364950e-01 1.359770e+00 -8.883843e-02
      vertex   -6.364949e-01 1.402110e+00 -8.883846e-02
      vertex   -5.269070e-01 1.402110e+00 -1.984264e-01
    endloop
  endfacet
  facet normal -7.071069e-01 6.221464e-07 -7.071067e-01
    outer loop
      vertex   -5.269070e-01 1.359770e+00 -1.984264e-01
      vertex   -6.364950e-01 1.359770e+00 -8.883843e-02
      vertex   -5.269070e-01 1.402110e+00 -1.984264e-01
    endloop
  endfacet
  facet normal -1.201856e-07 8.798480e-07 -1.000000e+00
    outer loop
      vertex   -5.269070e-01 1.359770e+00 -1.984264e-01
      vertex   -5.269070e-01 1.402110e+00 -1.984264e-01
      vertex   -3.719263e-01 1.402110e+00 -1.984264e-01
    endloop
  endfacet
  facet normal 0.000000e+00 4.399240e-07 -1.000000e+00
    outer loop
      vertex   -3.719262e-01 1.359770e+00 -1.984264e-01
      vertex   -5.269070e-01 1.359770e+00 -1.984264e-01
      vertex   -3.719263e-01 1.402110e+00 -1.984264e-01
    endloop
  endfacet
  facet normal 7.071067e-01 9.332197e-07 -7.071069e-01
    outer loop
      vertex   -3.719262e-01 1.359770e+00 -1.984264e-01
      vertex   -3.719263e-01 1.402110e+00 -1.984264e-01
      vertex   -2.623384e-01 1.402110e+00 -8.883850e-02
    endloop
  endfacet
  facet normal 7.071071e-01 -1.399828e-06 -7.071064e-01
    outer loop
      vertex   -2.623383e-01 1.359770e+00 -8.883838e-02
      vertex   -3.719262e-01 1.359770e+00 -1.984264e-01
      vertex   -2.623384e-01 1.402110e+00 -8.883850e-02
    endloop
  endfacet
  facet normal 1.000000e+00 8.798476e-07 -1.201856e-07
    outer loop
      vertex   -2.623383e-01 1.359770e+00 -8.883838e-02
      vertex   -2.623384e-01 1.402110e+00 -8.883850e-02
      vertex   -2.623383e-01 1.402110e+00 6.614225e-02
    endloop
  endfacet
  facet normal 1.000000e+00 -1.319771e-06 4.807425e-07
    outer loop
      vertex   -2.623384e-01 1.359770e+00 6.614232e-02
      vertex   -2.623383e-01 1.359770e+00 -8.883838e-02
      vertex   -2.623383e-01 1.402110e+00 6.614225e-02
    endloop
  endfacet
  facet normal 0.000000e+00 -1.000000e+00 0.000000e+00
    outer loop
      vertex   -2.623381e-01 -1.402110e+00 -8.883880e-02
      vertex   -2.623381e-01 -1.402110e+00 6.614193e-02
      vertex   -4.494164e-01 -1.402110e+00 -1.134842e-02
    endloop
  endfacet
  facet normal 0.000000e+00 -1.000000e+00 0.000000e+00
    outer loop
      vertex   -4.494164e-01 -1.402110e+00 -1.134842e-02
      vertex   -3.719260e-01 -1.402110e+00 -1.984267e-01
      vertex   -2.623381e-01 -1.402110e+00 -8.883880e-02
    endloop
  endfacet
  facet normal 0.000000e+00 -1.000000e+00 -0.000000e+00
    outer loop
      vertex   -4.494164e-01 -1.402110e+00 -1.134842e-02
      vertex   -5.269067e-01 -1.402110e+00 -1.984267e-01
      vertex   -3.719260e-01 -1.402110e+00 -1.984267e-01
    endloop
  endfacet
  facet normal 0.000000e+00 -1.000000e+00 0.000000e+00
    outer loop
      vertex   -4.494164e-01 -1.402110e+00 -1.134842e-02
      vertex   -6.364948e-01 -1.402110e+00 -8.883874e-02
      vertex   -5.269067e-01 -1.402110e+00 -1.984267e-01
    endloop
  endfacet
  facet normal -0.000000e+00 -1.000000e+00 0.000000e+00
    outer loop
      vertex   -4.494164e-01 -1.402110e+00 -1.134842e-02
      vertex   -6.364947e-01 -1.402110e+00 6.614194e-02
      vertex   -6.364948e-01 -1.402110e+00 -8.883874e-02
    endloop
  endfacet
  facet normal 0.000000e+00 -1.000000e+00 0.000000e+00
    outer loop
      vertex   -4.494164e-01 -1.402110e+00 -1.134842e-02
      vertex   -5.269068e-01 -1.402110e+00 1.757298e-01
      vertex   -6.364947e-01 -1.402110e+00 6.614194e-02
    endloop
  endfacet
  facet normal 0.000000e+00 -1.000000e+00 0.000000e+00
    outer loop
      vertex   -4.494164e-01 -1.402110e+00 -1.134842e-02
      vertex   -3.719261e-01 -1.402110e+00 1.757299e-01
      vertex   -5.269068e-01 -1.402110e+00 1.757298e-01
    endloop
  endfacet
  facet normal 0.000000e+00 -1.000000e+00 0.000000e+00
    outer loop
      vertex   -4.494164e-01 -1.402110e+00 -1.134842e-02
      vertex   -2.623381e-01 -1.402110e+00 6.614193e-02
      vertex   -3.719261e-01 -1.402110e+00 1.757299e-01
    endloop
  endfacet
  facet normal 6.427873e-01 -7.660447e-01 -3.360897e-07
    outer loop
      vertex   9.205952e-02 -1.166662e+00 1.757299e-01
      vertex   3.269854e-02 -1.216472e+00 -1.134842e-02
      vertex   1.760088e-01 -1.096221e+00 6.614194e-02
    endloop
  endfacet
  facet normal 6.427874e-01 -7.660446e-01 -3.621733e-07
    outer loop
      vertex   3.269854e-02 -1.216472e+00 -1.134842e-02
      vertex   9.205952e-02 -1.166662e+00 1.757299e-01
      vertex   -2.666260e-02 -1.266282e+00 1.757299e-01
    endloop
  endfacet
  facet normal 6.427874e-01 -7.660447e-01 -3.771871e-07
    outer loop
      vertex   3.269854e-02 -1.216472e+00 -1.134842e-02
      vertex   -2.666260e-02 -1.266282e+00 1.757299e-01
      vertex   -1.106118e-01 -1.336724e+00 6.614195e-02
    endloop
  endfacet
  facet normal 6.427875e-01 -7.660445e-01 2.317615e-07
    outer loop
      vertex   3.269854e-02 -1.216472e+00 -1.134842e-02
      vertex   -1.106118e-01 -1.336724e+00 6.614195e-02
      vertex   -1.106118e-01 -1.336724e+00 -8.883874e-02
    endloop
  endfacet
  facet normal 6.427875e-01 -7.660446e-01 5.322631e-07
    outer loop
      vertex   3.269854e-02 -1.216472e+00 -1.134842e-02
      vertex   -1.106118e-01 -1.336724e+00 -8.883874e-02
      vertex   -2.666254e-02 -1.266282e+00 -1.984267e-01
    endloop
  endfacet
  facet normal 6.427874e-01 -7.660446e-01 5.621706e-07
    outer loop
      vertex   3.269854e-02 -1.216472e+00 -1.134842e-02
      vertex   -2.666254e-02 -1.266282e+00 -1.984267e-01
      vertex   9.205958e-02 -1.166662e+00 -1.984267e-01
    endloop
  endfacet
  facet normal 6.427874e-01 -7.660446e-01 5.678511e-07
    outer loop
      vertex   3.269854e-02 -1.216472e+00 -1.134842e-02
      vertex   9.205958e-02 -1.166662e+00 -1.984267e-01
      vertex   1.760088e-01 -1.096221e+00 -8.883878e-02
    endloop
  endfacet
  facet normal 6.427872e-01 -7.660448e-01 0.000000e+00
    outer loop
      vertex   3.269854e-02 -1.216472e+00 -1.134842e-02
      vertex   1.760088e-01 -1.096221e+00 -8.883878e-02
      vertex   1.760088e-01 -1.096221e+00 6.614194e-02
    endloop
  endfacet
  facet normal 8.660253e-01 -5.000003e-01 -2.081676e-07
    outer loop
      vertex   3.849678e-01 -8.005955e-01 -1.134839e-02
      vertex   4.785070e-01 -6.385810e-01 -8.883875e-02
      vertex   4.785071e-01 -6.385810e-01 6.614192e-02
    endloop
  endfacet
  facet normal 8.660253e-01 -5.000002e-01 4.608531e-08
    outer loop
      vertex   3.849678e-01 -8.005955e-01 -1.134839e-02
      vertex   4.237130e-01 -7.334869e-01 -1.984267e-01
      vertex   4.785070e-01 -6.385810e-01 -8.883875e-02
    endloop
  endfacet
  facet normal 8.660255e-01 -4.999999e-01 1.857908e-07
    outer loop
      vertex   3.849678e-01 -8.005955e-01 -1.134839e-02
      vertex   3.462227e-01 -8.677042e-01 -1.984267e-01
      vertex   4.237130e-01 -7.334869e-01 -1.984267e-01
    endloop
  endfacet
  facet normal 8.660257e-01 -4.999994e-01 -2.558000e-08
    outer loop
      vertex   3.849678e-01 -8.005955e-01 -1.134839e-02
      vertex   2.914287e-01 -9.626102e-01 -8.883872e-02
      vertex   3.462227e-01 -8.677042e-01 -1.984267e-01
    endloop
  endfacet
  facet normal 8.660257e-01 -4.999996e-01 3.122515e-07
    outer loop
      vertex   3.849678e-01 -8.005955e-01 -1.134839e-02
      vertex   2.914287e-01 -9.626102e-01 6.614199e-02
      vertex   2.914287e-01 -9.626102e-01 -8.883872e-02
    endloop
  endfacet
  facet normal 8.660256e-01 -4.999996e-01 1.044090e-07
    outer loop
      vertex   3.849678e-01 -8.005955e-01 -1.134839e-02
      vertex   3.462227e-01 -8.677042e-01 1.757299e-01
      vertex   2.914287e-01 -9.626102e-01 6.614199e-02
    endloop
  endfacet
  facet normal 8.660254e-01 -5.000001e-01 -9.956502e-08
    outer loop
      vertex   3.849678e-01 -8.005955e-01 -1.134839e-02
      vertex   4.237130e-01 -7.334869e-01 1.757299e-01
      vertex   3.462227e-01 -8.677042e-01 1.757299e-01
    endloop
  endfacet
  facet normal 8.660252e-01 -5.000004e-01 4.014044e-08
    outer loop
      vertex   4.237130e-01 -7.334869e-01 1.757299e-01
      vertex   3.849678e-01 -8.005955e-01 -1.134839e-02
      vertex   4.785071e-01 -6.385810e-01 6.614192e-02
    endloop
  endfacet
  facet normal 9.848078e-01 -1.736481e-01 -1.679503e-07
    outer loop
      vertex   5.817010e-01 -2.041043e-01 1.757300e-01
      vertex   5.682450e-01 -2.804172e-01 -1.134829e-02
      vertex   6.007308e-01 -9.618110e-02 6.614201e-02
    endloop
  endfacet
  facet normal 9.848077e-01 -1.736483e-01 -1.123804e-07
    outer loop
      vertex   5.682450e-01 -2.804172e-01 -1.134829e-02
      vertex   5.817010e-01 -2.041043e-01 1.757300e-01
      vertex   5.547889e-01 -3.567303e-01 1.757299e-01
    endloop
  endfacet
  facet normal 9.848077e-01 -1.736484e-01 -1.481832e-07
    outer loop
      vertex   5.682450e-01 -2.804172e-01 -1.134829e-02
      vertex   5.547889e-01 -3.567303e-01 1.757299e-01
      vertex   5.357591e-01 -4.646536e-01 6.614204e-02
    endloop
  endfacet
  facet normal 9.848077e-01 -1.736482e-01 2.367195e-07
    outer loop
      vertex   5.682450e-01 -2.804172e-01 -1.134829e-02
      vertex   5.357591e-01 -4.646536e-01 6.614204e-02
      vertex   5.357591e-01 -4.646536e-01 -8.883864e-02
    endloop
  endfacet
  facet normal 9.848078e-01 -1.736480e-01 -1.448484e-07
    outer loop
      vertex   5.682450e-01 -2.804172e-01 -1.134829e-02
      vertex   5.357591e-01 -4.646536e-01 -8.883864e-02
      vertex   5.547889e-01 -3.567303e-01 -1.984266e-01
    endloop
  endfacet
  facet normal 9.848078e-01 -1.736481e-01 -1.269477e-07
    outer loop
      vertex   5.682450e-01 -2.804172e-01 -1.134829e-02
      vertex   5.547889e-01 -3.567303e-01 -1.984266e-01
      vertex   5.817010e-01 -2.041042e-01 -1.984266e-01
    endloop
  endfacet
  facet normal 9.848078e-01 -1.736481e-01 -1.211291e-07
    outer loop
      vertex   5.682450e-01 -2.804172e-01 -1.134829e-02
      vertex   5.817010e-01 -2.041042e-01 -1.984266e-01
      vertex   6.007307e-01 -9.618111e-02 -8.883866e-02
    endloop
  endfacet
  facet normal 9.848078e-01 -1.736481e-01 -2.262845e-07
    outer loop
      vertex   5.682450e-01 -2.804172e-01 -1.134829e-02
      vertex   6.007307e-01 -9.618111e-02 -8.883866e-02
      vertex   6.007308e-01 -9.618110e-02 6.614201e-02
    endloop
  endfacet
  facet normal 1.736453e-01 9.848083e-01 -1.009192e-07
    outer loop
      vertex   6.007308e-01 -9.618110e-02 6.614201e-02
      vertex   6.007307e-01 -9.618111e-02 -8.883866e-02
      vertex   5.590339e-01 -8.882895e-02 -8.883853e-02
    endloop
  endfacet
  facet normal 1.736447e-01 9.848084e-01 6.603771e-08
    outer loop
      vertex   6.007308e-01 -9.618110e-02 6.614201e-02
      vertex   5.590339e-01 -8.882895e-02 -8.883853e-02
      vertex   5.590338e-01 -8.882894e-02 6.614207e-02
    endloop
  endfacet
  facet normal 1.227897e-01 6.963637e-01 -7.071070e-01
    outer loop
      vertex   6.007307e-01 -9.618111e-02 -8.883866e-02
      vertex   5.817010e-01 -2.041042e-01 -1.984266e-01
      vertex   5.400041e-01 -1.967519e-01 -1.984266e-01
    endloop
  endfacet
  facet normal 1.227838e-01 6.963659e-01 -7.071058e-01
    outer loop
      vertex   6.007307e-01 -9.618111e-02 -8.883866e-02
      vertex   5.400041e-01 -1.967519e-01 -1.984266e-01
      vertex   5.590339e-01 -8.882895e-02 -8.883853e-02
    endloop
  endfacet
  facet normal 9.499616e-07 3.206551e-07 -1.000000e+00
    outer loop
      vertex   5.817010e-01 -2.041042e-01 -1.984266e-01
      vertex   5.547889e-01 -3.567303e-01 -1.984266e-01
      vertex   5.130921e-01 -3.493782e-01 -1.984267e-01
    endloop
  endfacet
  facet normal 1.774704e-06 -6.884807e-08 -1.000000e+00
    outer loop
      vertex   5.817010e-01 -2.041042e-01 -1.984266e-01
      vertex   5.130921e-01 -3.493782e-01 -1.984267e-01
      vertex   5.400041e-01 -1.967519e-01 -1.984266e-01
    endloop
  endfacet
  facet normal -1.227906e-01 -6.963633e-01 -7.071073e-01
    outer loop
      vertex   5.547889e-01 -3.567303e-01 -1.984266e-01
      vertex   5.357591e-01 -4.646536e-01 -8.883864e-02
      vertex   4.940623e-01 -4.573011e-01 -8.883867e-02
    endloop
  endfacet
  facet normal -1.227848e-01 -6.963655e-01 -7.071061e-01
    outer loop
      vertex   5.547889e-01 -3.567303e-01 -1.984266e-01
      vertex   4.940623e-01 -4.573011e-01 -8.883867e-02
      vertex   5.130921e-01 -3.493782e-01 -1.984267e-01
    endloop
  endfacet
  facet normal -1.736528e-01 -9.848069e-01 -4.174115e-08
    outer loop
      vertex   5.357591e-01 -4.646536e-01 -8.883864e-02
      vertex   5.357591e-01 -4.646536e-01 6.614204e-02
      vertex   4.940622e-01 -4.573011e-01 6.614215e-02
    endloop
  endfacet
  facet normal -1.736531e-01 -9.848069e-01 -1.252235e-07
    outer loop
      vertex   5.357591e-01 -4.646536e-01 -8.883864e-02
      vertex   4.940622e-01 -4.573011e-01 6.614215e-02
      vertex   4.940623e-01 -4.573011e-01 -8.883867e-02
    endloop
  endfacet
  facet normal -1.227892e-01 -6.963629e-01 7.071079e-01
    outer loop
      vertex   5.357591e-01 -4.646536e-01 6.614204e-02
      vertex   5.547889e-01 -3.567303e-01 1.757299e-01
      vertex   5.130921e-01 -3.493778e-01 1.757300e-01
    endloop
  endfacet
  facet normal -1.227891e-01 -6.963629e-01 7.071079e-01
    outer loop
      vertex   5.357591e-01 -4.646536e-01 6.614204e-02
      vertex   5.130921e-01 -3.493778e-01 1.757300e-01
      vertex   4.940622e-01 -4.573011e-01 6.614215e-02
    endloop
  endfacet
  facet normal -4.457625e-06 5.376098e-08 1.000000e+00
    outer loop
      vertex   5.547889e-01 -3.567303e-01 1.757299e-01
      vertex   5.817010e-01 -2.041043e-01 1.757300e-01
      vertex   5.400041e-01 -1.967515e-01 1.757298e-01
    endloop
  endfacet
  facet normal 1.899927e-06 6.413093e-07 1.000000e+00
    outer loop
      vertex   5.547889e-01 -3.567303e-01 1.757299e-01
      vertex   5.400041e-01 -1.967515e-01 1.757298e-01
      vertex   5.130921e-01 -3.493778e-01 1.757300e-01
    endloop
  endfacet
  facet normal 1.227930e-01 6.963643e-01 7.071058e-01
    outer loop
      vertex   5.590338e-01 -8.882894e-02 6.614207e-02
      vertex   5.400041e-01 -1.967515e-01 1.757298e-01
      vertex   5.817010e-01 -2.041043e-01 1.757300e-01
    endloop
  endfacet
  facet normal 1.227862e-01 6.963642e-01 7.071071e-01
    outer loop
      vertex   5.590338e-01 -8.882894e-02 6.614207e-02
      vertex   5.817010e-01 -2.041043e-01 1.757300e-01
      vertex   6.007308e-01 -9.618110e-02 6.614201e-02
    endloop
  endfacet
  facet normal 3.535539e-01 6.123722e-01 7.071067e-01
    outer loop
      vertex   4.418393e-01 -6.174109e-01 6.614201e-02
      vertex   3.870455e-01 -7.123167e-01 1.757298e-01
      vertex   4.237130e-01 -7.334869e-01 1.757299e-01
    endloop
  endfacet
  facet normal 3.535541e-01 6.123721e-01 7.071067e-01
    outer loop
      vertex   4.418393e-01 -6.174109e-01 6.614201e-02
      vertex   4.237130e-01 -7.334869e-01 1.757299e-01
      vertex   4.785071e-01 -6.385810e-01 6.614192e-02
    endloop
  endfacet
  facet normal -3.669245e-06 1.563326e-06 1.000000e+00
    outer loop
      vertex   3.462227e-01 -8.677042e-01 1.757299e-01
      vertex   4.237130e-01 -7.334869e-01 1.757299e-01
      vertex   3.870455e-01 -7.123167e-01 1.757298e-01
    endloop
  endfacet
  facet normal 2.505863e-06 -5.897656e-08 1.000000e+00
    outer loop
      vertex   3.462227e-01 -8.677042e-01 1.757299e-01
      vertex   3.870455e-01 -7.123167e-01 1.757298e-01
      vertex   3.095552e-01 -8.465341e-01 1.757300e-01
    endloop
  endfacet
  facet normal -3.535529e-01 -6.123719e-01 7.071075e-01
    outer loop
      vertex   2.914287e-01 -9.626102e-01 6.614199e-02
      vertex   3.462227e-01 -8.677042e-01 1.757299e-01
      vertex   3.095552e-01 -8.465341e-01 1.757300e-01
    endloop
  endfacet
  facet normal -3.535537e-01 -6.123716e-01 7.071073e-01
    outer loop
      vertex   2.914287e-01 -9.626102e-01 6.614199e-02
      vertex   3.095552e-01 -8.465341e-01 1.757300e-01
      vertex   2.547611e-01 -9.414400e-01 6.614211e-02
    endloop
  endfacet
  facet normal -5.000033e-01 -8.660235e-01 -1.802796e-07
    outer loop
      vertex   2.914287e-01 -9.626102e-01 -8.883872e-02
      vertex   2.914287e-01 -9.626102e-01 6.614199e-02
      vertex   2.547611e-01 -9.414400e-01 6.614211e-02
    endloop
  endfacet
  facet normal -5.000028e-01 -8.660238e-01 0.000000e+00
    outer loop
      vertex   2.914287e-01 -9.626102e-01 -8.883872e-02
      vertex   2.547611e-01 -9.414400e-01 6.614211e-02
      vertex   2.547611e-01 -9.414400e-01 -8.883872e-02
    endloop
  endfacet
  facet normal -3.535552e-01 -6.123711e-01 -7.071070e-01
    outer loop
      vertex   3.462227e-01 -8.677042e-01 -1.984267e-01
      vertex   2.914287e-01 -9.626102e-01 -8.883872e-02
      vertex   2.547611e-01 -9.414400e-01 -8.883872e-02
    endloop
  endfacet
  facet normal -3.535538e-01 -6.123723e-01 -7.071067e-01
    outer loop
      vertex   3.462227e-01 -8.677042e-01 -1.984267e-01
      vertex   2.547611e-01 -9.414400e-01 -8.883872e-02
      vertex   3.095551e-01 -8.465341e-01 -1.984267e-01
    endloop
  endfacet
  facet normal 1.802786e-07 3.122513e-07 -1.000000e+00
    outer loop
      vertex   4.237130e-01 -7.334869e-01 -1.984267e-01
      vertex   3.462227e-01 -8.677042e-01 -1.984267e-01
      vertex   3.095551e-01 -8.465341e-01 -1.984267e-01
    endloop
  endfacet
  facet normal 5.011720e-07 -1.179509e-08 -1.000000e+00
    outer loop
      vertex   4.237130e-01 -7.334869e-01 -1.984267e-01
      vertex   3.095551e-01 -8.465341e-01 -1.984267e-01
      vertex   3.870455e-01 -7.123169e-01 -1.984267e-01
    endloop
  endfacet
  facet normal 3.535544e-01 6.123717e-01 -7.071069e-01
    outer loop
      vertex   4.785070e-01 -6.385810e-01 -8.883875e-02
      vertex   4.237130e-01 -7.334869e-01 -1.984267e-01
      vertex   3.870455e-01 -7.123169e-01 -1.984267e-01
    endloop
  endfacet
  facet normal 3.535516e-01 6.123741e-01 -7.071062e-01
    outer loop
      vertex   4.785070e-01 -6.385810e-01 -8.883875e-02
      vertex   3.870455e-01 -7.123169e-01 -1.984267e-01
      vertex   4.418394e-01 -6.174109e-01 -8.883861e-02
    endloop
  endfacet
  facet normal 4.999999e-01 8.660254e-01 -1.201856e-07
    outer loop
      vertex   4.785071e-01 -6.385810e-01 6.614192e-02
      vertex   4.785070e-01 -6.385810e-01 -8.883875e-02
      vertex   4.418394e-01 -6.174109e-01 -8.883861e-02
    endloop
  endfacet
  facet normal 4.999992e-01 8.660259e-01 1.201855e-07
    outer loop
      vertex   4.785071e-01 -6.385810e-01 6.614192e-02
      vertex   4.418394e-01 -6.174109e-01 -8.883861e-02
      vertex   4.418393e-01 -6.174109e-01 6.614201e-02
    endloop
  endfacet
  facet normal 7.660453e-01 6.427866e-01 0.000000e+00
    outer loop
      vertex   1.760088e-01 -1.096221e+00 6.614194e-02
      vertex   1.760088e-01 -1.096221e+00 -8.883878e-02
      vertex   1.487931e-01 -1.063786e+00 -8.883867e-02
    endloop
  endfacet
  facet normal 7.660445e-01 6.427875e-01 3.222364e-07
    outer loop
      vertex   1.760088e-01 -1.096221e+00 6.614194e-02
      vertex   1.487931e-01 -1.063786e+00 -8.883867e-02
      vertex   1.487931e-01 -1.063786e+00 6.614199e-02
    endloop
  endfacet
  facet normal 5.416770e-01 4.545171e-01 -7.071069e-01
    outer loop
      vertex   1.760088e-01 -1.096221e+00 -8.883878e-02
      vertex   9.205958e-02 -1.166662e+00 -1.984267e-01
      vertex   6.484391e-02 -1.134228e+00 -1.984267e-01
    endloop
  endfacet
  facet normal 5.416751e-01 4.545205e-01 -7.071062e-01
    outer loop
      vertex   1.760088e-01 -1.096221e+00 -8.883878e-02
      vertex   6.484391e-02 -1.134228e+00 -1.984267e-01
      vertex   1.487931e-01 -1.063786e+00 -8.883867e-02
    endloop
  endfacet
  facet normal 2.827776e-07 -3.370014e-07 -1.000000e+00
    outer loop
      vertex   9.205958e-02 -1.166662e+00 -1.984267e-01
      vertex   -2.666254e-02 -1.266282e+00 -1.984267e-01
      vertex   -5.387825e-02 -1.233848e+00 -1.984267e-01
    endloop
  endfacet
  facet normal 2.827772e-07 -3.370005e-07 -1.000000e+00
    outer loop
      vertex   9.205958e-02 -1.166662e+00 -1.984267e-01
      vertex   -5.387825e-02 -1.233848e+00 -1.984267e-01
      vertex   6.484391e-02 -1.134228e+00 -1.984267e-01
    endloop
  endfacet
  facet normal -5.416743e-01 -4.545210e-01 -7.071065e-01
    outer loop
      vertex   -2.666254e-02 -1.266282e+00 -1.984267e-01
      vertex   -1.106118e-01 -1.336724e+00 -8.883874e-02
      vertex   -1.378275e-01 -1.304289e+00 -8.883875e-02
    endloop
  endfacet
  facet normal -5.416752e-01 -4.545193e-01 -7.071069e-01
    outer loop
      vertex   -2.666254e-02 -1.266282e+00 -1.984267e-01
      vertex   -1.378275e-01 -1.304289e+00 -8.883875e-02
      vertex   -5.387825e-02 -1.233848e+00 -1.984267e-01
    endloop
  endfacet
  facet normal -7.660438e-01 -6.427884e-01 -2.762024e-07
    outer loop
      vertex   -1.106118e-01 -1.336724e+00 -8.883874e-02
      vertex   -1.106118e-01 -1.336724e+00 6.614195e-02
      vertex   -1.378275e-01 -1.304289e+00 6.614208e-02
    endloop
  endfacet
  facet normal -7.660430e-01 -6.427893e-01 4.603364e-08
    outer loop
      vertex   -1.106118e-01 -1.336724e+00 -8.883874e-02
      vertex   -1.378275e-01 -1.304289e+00 6.614208e-02
      vertex   -1.378275e-01 -1.304289e+00 -8.883875e-02
    endloop
  endfacet
  facet normal -5.416760e-01 -4.545187e-01 7.071066e-01
    outer loop
      vertex   -1.106118e-01 -1.336724e+00 6.614195e-02
      vertex   -2.666260e-02 -1.266282e+00 1.757299e-01
      vertex   -5.387814e-02 -1.233848e+00 1.757300e-01
    endloop
  endfacet
  facet normal -5.416729e-01 -4.545212e-01 7.071074e-01
    outer loop
      vertex   -1.106118e-01 -1.336724e+00 6.614195e-02
      vertex   -5.387814e-02 -1.233848e+00 1.757300e-01
      vertex   -1.378275e-01 -1.304289e+00 6.614208e-02
    endloop
  endfacet
  facet normal -2.446357e-06 2.541506e-06 1.000000e+00
    outer loop
      vertex   -2.666260e-02 -1.266282e+00 1.757299e-01
      vertex   9.205952e-02 -1.166662e+00 1.757299e-01
      vertex   6.484401e-02 -1.134228e+00 1.757297e-01
    endloop
  endfacet
  facet normal 2.426638e-06 -8.352226e-07 1.000000e+00
    outer loop
      vertex   -2.666260e-02 -1.266282e+00 1.757299e-01
      vertex   6.484401e-02 -1.134228e+00 1.757297e-01
      vertex   -5.387814e-02 -1.233848e+00 1.757300e-01
    endloop
  endfacet
  facet normal 5.416767e-01 4.545179e-01 7.071067e-01
    outer loop
      vertex   1.487931e-01 -1.063786e+00 6.614199e-02
      vertex   6.484401e-02 -1.134228e+00 1.757297e-01
      vertex   9.205952e-02 -1.166662e+00 1.757299e-01
    endloop
  endfacet
  facet normal 5.416757e-01 4.545187e-01 7.071069e-01
    outer loop
      vertex   1.487931e-01 -1.063786e+00 6.614199e-02
      vertex   9.205952e-02 -1.166662e+00 1.757299e-01
      vertex   1.760088e-01 -1.096221e+00 6.614194e-02
    endloop
  endfacet
  facet normal 7.071070e-01 -2.488588e-06 7.071065e-01
    outer loop
      vertex   -2.623381e-01 -1.359770e+00 6.614199e-02
      vertex   -3.719258e-01 -1.359770e+00 1.757297e-01
      vertex   -3.719261e-01 -1.402110e+00 1.757299e-01
    endloop
  endfacet
  facet normal 7.071067e-01 -6.221467e-07 7.071069e-01
    outer loop
      vertex   -2.623381e-01 -1.359770e+00 6.614199e-02
      vertex   -3.719261e-01 -1.402110e+00 1.757299e-01
      vertex   -2.623381e-01 -1.402110e+00 6.614193e-02
    endloop
  endfacet
  facet normal -2.403712e-07 3.519394e-06 1.000000e+00
    outer loop
      vertex   -5.269068e-01 -1.402110e+00 1.757298e-01
      vertex   -3.719261e-01 -1.402110e+00 1.757299e-01
      vertex   -3.719258e-01 -1.359770e+00 1.757297e-01
    endloop
  endfacet
  facet normal 1.201855e-06 -1.759703e-06 1.000000e+00
    outer loop
      vertex   -5.269068e-01 -1.402110e+00 1.757298e-01
      vertex   -3.719258e-01 -1.359770e+00 1.757297e-01
      vertex   -5.269065e-01 -1.359770e+00 1.757299e-01
    endloop
  endfacet
  facet normal -7.071068e-01 3.110733e-06 7.071067e-01
    outer loop
      vertex   -6.364947e-01 -1.402110e+00 6.614194e-02
      vertex   -5.269068e-01 -1.402110e+00 1.757298e-01
      vertex   -5.269065e-01 -1.359770e+00 1.757299e-01
    endloop
  endfacet
  facet normal -7.071059e-01 -1.788673e-06 7.071077e-01
    outer loop
      vertex   -6.364947e-01 -1.402110e+00 6.614194e-02
      vertex   -5.269065e-01 -1.359770e+00 1.757299e-01
      vertex   -6.364947e-01 -1.359770e+00 6.614204e-02
    endloop
  endfacet
  facet normal -1.000000e+00 -1.216069e-12 4.807426e-07
    outer loop
      vertex   -6.364948e-01 -1.402110e+00 -8.883874e-02
      vertex   -6.364947e-01 -1.402110e+00 6.614194e-02
      vertex   -6.364947e-01 -1.359770e+00 6.614204e-02
    endloop
  endfacet
  facet normal -1.000000e+00 1.057450e-13 4.807422e-07
    outer loop
      vertex   -6.364948e-01 -1.402110e+00 -8.883874e-02
      vertex   -6.364947e-01 -1.359770e+00 6.614204e-02
      vertex   -6.364948e-01 -1.359770e+00 -8.883875e-02
    endloop
  endfacet
  facet normal -7.071066e-01 -1.555366e-07 -7.071069e-01
    outer loop
      vertex   -5.269067e-01 -1.402110e+00 -1.984267e-01
      vertex   -6.364948e-01 -1.402110e+00 -8.883874e-02
      vertex   -6.364948e-01 -1.359770e+00 -8.883875e-02
    endloop
  endfacet
  facet normal -7.071067e-01 -6.221464e-07 -7.071068e-01
    outer loop
      vertex   -5.269067e-01 -1.402110e+00 -1.984267e-01
      vertex   -6.364948e-01 -1.359770e+00 -8.883875e-02
      vertex   -5.269068e-01 -1.359770e+00 -1.984267e-01
    endloop
  endfacet
  facet normal 1.201856e-07 1.057451e-13 -1.000000e+00
    outer loop
      vertex   -3.719260e-01 -1.402110e+00 -1.984267e-01
      vertex   -5.269067e-01 -1.402110e+00 -1.984267e-01
      vertex   -5.269068e-01 -1.359770e+00 -1.984267e-01
    endloop
  endfacet
  facet normal 1.201855e-07 -2.114900e-13 -1.000000e+00
    outer loop
      vertex   -3.719260e-01 -1.402110e+00 -1.984267e-01
      vertex   -5.269068e-01 -1.359770e+00 -1.984267e-01
      vertex   -3.719259e-01 -1.359770e+00 -1.984267e-01
    endloop
  endfacet
  facet normal 7.071067e-01 -1.244293e-06 -7.071069e-01
    outer loop
      vertex   -2.623381e-01 -1.402110e+00 -8.883880e-02
      vertex   -3.719260e-01 -1.402110e+00 -1.984267e-01
      vertex   -3.719259e-01 -1.359770e+00 -1.984267e-01
    endloop
  endfacet
  facet normal 7.071071e-01 1.088755e-06 -7.071065e-01
    outer loop
      vertex   -2.623381e-01 -1.402110e+00 -8.883880e-02
      vertex   -3.719259e-01 -1.359770e+00 -1.984267e-01
      vertex   -2.623381e-01 -1.359770e+00 -8.883870e-02
    endloop
  endfacet
  facet normal 1.000000e+00 -8.798480e-07 0.000000e+00
    outer loop
      vertex   -2.623381e-01 -1.402110e+00 6.614193e-02
      vertex   -2.623381e-01 -1.402110e+00 -8.883880e-02
      vertex   -2.623381e-01 -1.359770e+00 -8.883870e-02
    endloop
  endfacet
  facet normal 1.000000e+00 4.399235e-07 3.605569e-07
    outer loop
      vertex   -2.623381e-01 -1.402110e+00 6.614193e-02
      vertex   -2.623381e-01 -1.359770e+00 -8.883870e-02
      vertex   -2.623381e-01 -1.359770e+00 6.614199e-02
    endloop
  endfacet
  facet normal 0.000000e+00 1.000000e+00 0.000000e+00
    outer loop
      vertex   -2.623381e-01 -1.359770e+00 6.614199e-02
      vertex   -2.623381e-01 -1.359770e+00 -8.883870e-02
      vertex   -3.719258e-01 -1.359770e+00 1.757297e-01
    endloop
  endfacet
  facet normal 0.000000e+00 1.000000e+00 0.000000e+00
    outer loop
      vertex   -2.623381e-01 -1.359770e+00 -8.883870e-02
      vertex   -3.719259e-01 -1.359770e+00 -1.984267e-01
      vertex   -3.719258e-01 -1.359770e+00 1.757297e-01
    endloop
  endfacet
  facet normal 0.000000e+00 1.000000e+00 0.000000e+00
    outer loop
      vertex   -5.269068e-01 -1.359770e+00 -1.984267e-01
      vertex   -6.364948e-01 -1.359770e+00 -8.883875e-02
      vertex   -6.364947e-01 -1.359770e+00 6.614204e-02
    endloop
  endfacet
  facet normal 0.000000e+00 1.000000e+00 0.000000e+00
    outer loop
      vertex   -3.719259e-01 -1.359770e+00 -1.984267e-01
      vertex   -5.269068e-01 -1.359770e+00 -1.984267e-01
      vertex   -6.364947e-01 -1.359770e+00 6.614204e-02
    endloop
  endfacet
  facet normal 0.000000e+00 1.000000e+00 -0.000000e+00
    outer loop
      vertex   -3.719259e-01 -1.359770e+00 -1.984267e-01
      vertex   -6.364947e-01 -1.359770e+00 6.614204e-02
      vertex   -3.719258e-01 -1.359770e+00 1.757297e-01
    endloop
  endfacet
  facet normal 0.000000e+00 1.000000e+00 0.000000e+00
    outer loop
      vertex   -6.364947e-01 -1.359770e+00 6.614204e-02
      vertex   -5.269065e-01 -1.359770e+00 1.757299e-01
      vertex   -3.719258e-01 -1.359770e+00 1.757297e-01
    endloop
  endfacet
  facet normal -6.427869e-01 7.660451e-01 -2.703882e-07
    outer loop
      vertex   1.487931e-01 -1.063786e+00 -8.883867e-02
      vertex   6.484391e-02 -1.134228e+00 -1.984267e-01
      vertex   1.487931e-01 -1.063786e+00 6.614199e-02
    endloop
  endfacet
  facet normal -6.427878e-01 7.660443e-01 2.346319e-07
    outer loop
      vertex   6.484391e-02 -1.134228e+00 -1.984267e-01
      vertex   -5.387825e-02 -1.233848e+00 -1.984267e-01
      vertex   1.487931e-01 -1.063786e+00 6.614199e-02
    endloop
  endfacet
  facet normal -6.427877e-01 7.660443e-01 1.345371e-07
    outer loop
      vertex   -5.387825e-02 -1.233848e+00 -1.984267e-01
      vertex   6.484401e-02 -1.134228e+00 1.757297e-01
      vertex   1.487931e-01 -1.063786e+00 6.614199e-02
    endloop
  endfacet
  facet normal -6.427877e-01 7.660444e-01 8.762641e-08
    outer loop
      vertex   -5.387825e-02 -1.233848e+00 -1.984267e-01
      vertex   -1.378275e-01 -1.304289e+00 -8.883875e-02
      vertex   6.484401e-02 -1.134228e+00 1.757297e-01
    endloop
  endfacet
  facet normal -6.427876e-01 7.660444e-01 3.862688e-08
    outer loop
      vertex   -1.378275e-01 -1.304289e+00 -8.883875e-02
      vertex   -1.378275e-01 -1.304289e+00 6.614208e-02
      vertex   6.484401e-02 -1.134228e+00 1.757297e-01
    endloop
  endfacet
  facet normal -6.427878e-01 7.660442e-01 7.652409e-07
    outer loop
      vertex   -1.378275e-01 -1.304289e+00 6.614208e-02
      vertex   -5.387814e-02 -1.233848e+00 1.757300e-01
      vertex   6.484401e-02 -1.134228e+00 1.757297e-01
    endloop
  endfacet
  facet normal -8.660258e-01 4.999993e-01 -2.081678e-07
    outer loop
      vertex   4.418393e-01 -6.174109e-01 6.614201e-02
      vertex   4.418394e-01 -6.174109e-01 -8.883861e-02
      vertex   3.870455e-01 -7.123167e-01 1.757298e-01
    endloop
  endfacet
  facet normal -8.660253e-01 5.000002e-01 -9.042367e-07
    outer loop
      vertex   4.418394e-01 -6.174109e-01 -8.883861e-02
      vertex   3.870455e-01 -7.123169e-01 -1.984267e-01
      vertex   3.095551e-01 -8.465341e-01 -1.984267e-01
    endloop
  endfacet
  facet normal -8.660255e-01 4.999998e-01 5.098648e-08
    outer loop
      vertex   4.418394e-01 -6.174109e-01 -8.883861e-02
      vertex   3.095551e-01 -8.465341e-01 -1.984267e-01
      vertex   3.870455e-01 -7.123167e-01 1.757298e-01
    endloop
  endfacet
  facet normal -8.660253e-01 5.000002e-01 -1.167807e-07
    outer loop
      vertex   3.095551e-01 -8.465341e-01 -1.984267e-01
      vertex   2.547611e-01 -9.414400e-01 -8.883872e-02
      vertex   3.870455e-01 -7.123167e-01 1.757298e-01
    endloop
  endfacet
  facet normal -8.660257e-01 4.999996e-01 5.814876e-07
    outer loop
      vertex   2.547611e-01 -9.414400e-01 -8.883872e-02
      vertex   3.095552e-01 -8.465341e-01 1.757300e-01
      vertex   3.870455e-01 -7.123167e-01 1.757298e-01
    endloop
  endfacet
  facet normal -8.660250e-01 5.000008e-01 0.000000e+00
    outer loop
      vertex   2.547611e-01 -9.414400e-01 -8.883872e-02
      vertex   2.547611e-01 -9.414400e-01 6.614211e-02
      vertex   3.095552e-01 -8.465341e-01 1.757300e-01
    endloop
  endfacet
  facet normal -9.848076e-01 1.736492e-01 -7.205938e-07
    outer loop
      vertex   5.590339e-01 -8.882895e-02 -8.883853e-02
      vertex   5.400041e-01 -1.967519e-01 -1.984266e-01
      vertex   5.590338e-01 -8.882894e-02 6.614207e-02
    endloop
  endfacet
  facet normal -9.848079e-01 1.736476e-01 -8.685156e-07
    outer loop
      vertex   5.400041e-01 -1.967519e-01 -1.984266e-01
      vertex   5.130921e-01 -3.493782e-01 -1.984267e-01
      vertex   4.940623e-01 -4.573011e-01 -8.883867e-02
    endloop
  endfacet
  facet normal -9.848078e-01 1.736479e-01 -1.908558e-07
    outer loop
      vertex   5.400041e-01 -1.967519e-01 -1.984266e-01
      vertex   4.940623e-01 -4.573011e-01 -8.883867e-02
      vertex   5.590338e-01 -8.882894e-02 6.614207e-02
    endloop
  endfacet
  facet normal -9.848078e-01 1.736481e-01 -7.101578e-07
    outer loop
      vertex   4.940623e-01 -4.573011e-01 -8.883867e-02
      vertex   4.940622e-01 -4.573011e-01 6.614215e-02
      vertex   5.590338e-01 -8.882894e-02 6.614207e-02
    endloop
  endfacet
  facet normal -9.848078e-01 1.736481e-01 7.867419e-07
    outer loop
      vertex   4.940622e-01 -4.573011e-01 6.614215e-02
      vertex   5.130921e-01 -3.493778e-01 1.757300e-01
      vertex   5.590338e-01 -8.882894e-02 6.614207e-02
    endloop
  endfacet
  facet normal -9.848078e-01 1.736477e-01 -3.094522e-07
    outer loop
      vertex   5.130921e-01 -3.493778e-01 1.757300e-01
      vertex   5.400041e-01 -1.967515e-01 1.757298e-01
      vertex   5.590338e-01 -8.882894e-02 6.614207e-02
    endloop
  endfacet
  facet normal -0.000000e+00 -1.000000e+00 -0.000000e+00
    outer loop
      vertex   -3.719261e-01 1.359770e+00 1.757301e-01
      vertex   -5.269068e-01 1.359770e+00 1.757302e-01
      vertex   -2.623384e-01 1.359770e+00 6.614232e-02
    endloop
  endfacet
  facet normal 0.000000e+00 -1.000000e+00 -0.000000e+00
    outer loop
      vertex   -5.269068e-01 1.359770e+00 1.757302e-01
      vertex   -6.364949e-01 1.359770e+00 6.614236e-02
      vertex   -2.623384e-01 1.359770e+00 6.614232e-02
    endloop
  endfacet
  facet normal 0.000000e+00 -1.000000e+00 -0.000000e+00
    outer loop
      vertex   -6.364949e-01 1.359770e+00 6.614236e-02
      vertex   -6.364950e-01 1.359770e+00 -8.883843e-02
      vertex   -2.623384e-01 1.359770e+00 6.614232e-02
    endloop
  endfacet
  facet normal 0.000000e+00 -1.000000e+00 0.000000e+00
    outer loop
      vertex   -6.364950e-01 1.359770e+00 -8.883843e-02
      vertex   -5.269070e-01 1.359770e+00 -1.984264e-01
      vertex   -2.623384e-01 1.359770e+00 6.614232e-02
    endloop
  endfacet
  facet normal 0.000000e+00 -1.000000e+00 0.000000e+00
    outer loop
      vertex   -5.269070e-01 1.359770e+00 -1.984264e-01
      vertex   -3.719262e-01 1.359770e+00 -1.984264e-01
      vertex   -2.623384e-01 1.359770e+00 6.614232e-02
    endloop
  endfacet
  facet normal 0.000000e+00 -1.000000e+00 0.000000e+00
    outer loop
      vertex   -3.719262e-01 1.359770e+00 -1.984264e-01
      vertex   -2.623383e-01 1.359770e+00 -8.883838e-02
      vertex   -2.623384e-01 1.359770e+00 6.614232e-02
    endloop
  endfacet
  facet normal -6.427879e-01 -7.660442e-01 9.788150e-08
    outer loop
      vertex   1.487928e-01 1.063786e+00 6.614234e-02
      vertex   6.484374e-02 1.134228e+00 1.757301e-01
      vertex   1.487928e-01 1.063786e+00 -8.883835e-02
    endloop
  endfacet
  facet normal -6.427875e-01 -7.660445e-01 2.727146e-07
    outer loop
      vertex   6.484374e-02 1.134228e+00 1.757301e-01
      vertex   -5.387842e-02 1.233848e+00 1.757303e-01
      vertex   1.487928e-01 1.063786e+00 -8.883835e-02
    endloop
  endfacet
  facet normal -6.427877e-01 -7.660444e-01 6.477996e-08
    outer loop
      vertex   -5.387842e-02 1.233848e+00 1.757303e-01
      vertex   -1.378278e-01 1.304289e+00 6.614239e-02
      vertex   1.487928e-01 1.063786e+00 -8.883835e-02
    endloop
  endfacet
  facet normal -6.427877e-01 -7.660444e-01 1.158807e-07
    outer loop
      vertex   -1.378278e-01 1.304289e+00 6.614239e-02
      vertex   -1.378278e-01 1.304289e+00 -8.883842e-02
      vertex   1.487928e-01 1.063786e+00 -8.883835e-02
    endloop
  endfacet
  facet normal -6.427877e-01 -7.660444e-01 -1.730346e-07
    outer loop
      vertex   -1.378278e-01 1.304289e+00 -8.883842e-02
      vertex   6.484360e-02 1.134228e+00 -1.984264e-01
      vertex   1.487928e-01 1.063786e+00 -8.883835e-02
    endloop
  endfacet
  facet normal -6.427875e-01 -7.660445e-01 2.778623e-07
    outer loop
      vertex   -1.378278e-01 1.304289e+00 -8.883842e-02
      vertex   -5.387856e-02 1.233848e+00 -1.984264e-01
      vertex   6.484360e-02 1.134228e+00 -1.984264e-01
    endloop
  endfacet
  facet normal -8.660254e-01 -4.999999e-01 8.671772e-07
    outer loop
      vertex   3.870453e-01 7.123167e-01 1.757301e-01
      vertex   3.095549e-01 8.465340e-01 1.757303e-01
      vertex   4.418390e-01 6.174109e-01 6.614241e-02
    endloop
  endfacet
  facet normal -8.660257e-01 -4.999995e-01 -4.163353e-07
    outer loop
      vertex   3.095549e-01 8.465340e-01 1.757303e-01
      vertex   4.418391e-01 6.174109e-01 -8.883830e-02
      vertex   4.418390e-01 6.174109e-01 6.614241e-02
    endloop
  endfacet
  facet normal -8.660251e-01 -5.000006e-01 0.000000e+00
    outer loop
      vertex   3.095549e-01 8.465340e-01 1.757303e-01
      vertex   2.547608e-01 9.414400e-01 6.614244e-02
      vertex   2.547608e-01 9.414400e-01 -8.883839e-02
    endloop
  endfacet
  facet normal -8.660254e-01 -5.000001e-01 2.571220e-07
    outer loop
      vertex   3.095549e-01 8.465340e-01 1.757303e-01
      vertex   2.547608e-01 9.414400e-01 -8.883839e-02
      vertex   4.418391e-01 6.174109e-01 -8.883830e-02
    endloop
  endfacet
  facet normal -8.660254e-01 -5.000001e-01 -7.750345e-08
    outer loop
      vertex   2.547608e-01 9.414400e-01 -8.883839e-02
      vertex   3.095548e-01 8.465341e-01 -1.984264e-01
      vertex   4.418391e-01 6.174109e-01 -8.883830e-02
    endloop
  endfacet
  facet normal -8.660253e-01 -5.000002e-01 -3.154507e-07
    outer loop
      vertex   3.095548e-01 8.465341e-01 -1.984264e-01
      vertex   3.870451e-01 7.123169e-01 -1.984263e-01
      vertex   4.418391e-01 6.174109e-01 -8.883830e-02
    endloop
  endfacet
  facet normal -9.848079e-01 -1.736476e-01 -4.055759e-07
    outer loop
      vertex   5.590335e-01 8.882888e-02 6.614247e-02
      vertex   5.400039e-01 1.967516e-01 1.757302e-01
      vertex   5.130918e-01 3.493780e-01 1.757304e-01
    endloop
  endfacet
  facet normal -9.848078e-01 -1.736481e-01 7.183431e-07
    outer loop
      vertex   5.590335e-01 8.882888e-02 6.614247e-02
      vertex   5.130918e-01 3.493780e-01 1.757304e-01
      vertex   4.940620e-01 4.573011e-01 6.614250e-02
    endloop
  endfacet
  facet normal -9.848078e-01 -1.736476e-01 -5.569183e-07
    outer loop
      vertex   4.940620e-01 4.573011e-01 6.614250e-02
      vertex   4.940620e-01 4.573012e-01 -8.883832e-02
      vertex   5.130918e-01 3.493781e-01 -1.984263e-01
    endloop
  endfacet
  facet normal -9.848078e-01 -1.736481e-01 -3.708993e-07
    outer loop
      vertex   5.590335e-01 8.882888e-02 6.614247e-02
      vertex   4.940620e-01 4.573011e-01 6.614250e-02
      vertex   5.130918e-01 3.493781e-01 -1.984263e-01
    endloop
  endfacet
  facet normal -9.848078e-01 -1.736479e-01 -2.262846e-07
    outer loop
      vertex   5.590335e-01 8.882888e-02 6.614247e-02
      vertex   5.130918e-01 3.493781e-01 -1.984263e-01
      vertex   5.590336e-01 8.882887e-02 -8.883818e-02
    endloop
  endfacet
  facet normal -9.848078e-01 -1.736479e-01 -1.237578e-07
    outer loop
      vertex   5.130918e-01 3.493781e-01 -1.984263e-01
      vertex   5.400039e-01 1.967518e-01 -1.984263e-01
      vertex   5.590336e-01 8.882887e-02 -8.883818e-02
    endloop
  endfacet
endsolid
